<?xml version="1.0" encoding="utf-8"?>
<!-- Generator: Adobe Illustrator 27.5.0, SVG Export Plug-In . SVG Version: 6.00 Build 0)  -->
<svg version="1.1" xmlns="http://www.w3.org/2000/svg" xmlns:xlink="http://www.w3.org/1999/xlink" x="0px" y="0px"
	 viewBox="0 0 600 500" style="enable-background:new 0 0 600 500;" xml:space="preserve">
<g id="BACKGROUND">
	<g id="XMLID_399_">
		<rect id="XMLID_204_" y="0" style="fill:#FDFEFF;" width="600" height="500"/>
	</g>
</g>
<g id="OBJECTS">
	<g id="XMLID_2_">
		<g id="XMLID_166_" style="opacity:0.3;">
			
				<linearGradient id="XMLID_00000169543056159656143620000006267453170009955739_" gradientUnits="userSpaceOnUse" x1="164.4695" y1="-16321.6182" x2="563.8029" y2="-15990.2852" gradientTransform="matrix(1 0 0 -1 0 -15881.8896)">
				<stop  offset="0" style="stop-color:#ECECEC"/>
				<stop  offset="0.9901" style="stop-color:#DCDCDC"/>
			</linearGradient>
			<path id="XMLID_160_" style="fill:url(#XMLID_00000169543056159656143620000006267453170009955739_);" d="M459.122,215.189
				h-31.541c-0.762,0-1.379-0.618-1.379-1.379v-10.948c0-0.762,0.618-1.379,1.379-1.379h31.541c0.762,0,1.379,0.618,1.379,1.379
				v10.948C460.502,214.572,459.884,215.189,459.122,215.189z"/>
			
				<linearGradient id="XMLID_00000060717700599524272750000002096648536286277288_" gradientUnits="userSpaceOnUse" x1="164.6621" y1="-16352.8477" x2="563.996" y2="-16021.5146" gradientTransform="matrix(1 0 0 -1 0 -15881.8896)">
				<stop  offset="0" style="stop-color:#ECECEC"/>
				<stop  offset="0.9901" style="stop-color:#DCDCDC"/>
			</linearGradient>
			<path id="XMLID_167_" style="fill:url(#XMLID_00000060717700599524272750000002096648536286277288_);" d="M478.272,230.689
				h-31.541c-0.762,0-1.38-0.618-1.38-1.379v-10.948c0-0.762,0.618-1.379,1.38-1.379h31.541c0.762,0,1.379,0.618,1.379,1.379v10.948
				C479.652,230.072,479.034,230.689,478.272,230.689z"/>
			
				<linearGradient id="XMLID_00000087391454187252403260000017461222592443167161_" gradientUnits="userSpaceOnUse" x1="9.8505" y1="-16298.4873" x2="409.1852" y2="-15967.1533" gradientTransform="matrix(1 0 0 -1 0 -15881.8896)">
				<stop  offset="0" style="stop-color:#ECECEC"/>
				<stop  offset="0.9901" style="stop-color:#DCDCDC"/>
			</linearGradient>
			<path id="XMLID_168_" style="fill:url(#XMLID_00000087391454187252403260000017461222592443167161_);" d="M178.266,296.8h-31.541
				c-0.762,0-1.38-0.618-1.38-1.379v-10.948c0-0.762,0.618-1.379,1.38-1.379h31.541c0.762,0,1.38,0.618,1.38,1.379v10.948
				C179.645,296.182,179.027,296.8,178.266,296.8z"/>
			
				<linearGradient id="XMLID_00000061438231961830911370000003370672634805897649_" gradientUnits="userSpaceOnUse" x1="8.9218" y1="-16203.6797" x2="408.2552" y2="-15872.3467" gradientTransform="matrix(1 0 0 -1 0 -15881.8896)">
				<stop  offset="0" style="stop-color:#ECECEC"/>
				<stop  offset="0.9901" style="stop-color:#DCDCDC"/>
			</linearGradient>
			<path id="XMLID_175_" style="fill:url(#XMLID_00000061438231961830911370000003370672634805897649_);" d="M119.529,249.956
				H87.987c-0.762,0-1.379-0.618-1.379-1.379v-10.948c0-0.762,0.618-1.379,1.379-1.379h31.541c0.762,0,1.379,0.618,1.379,1.379
				v10.948C120.908,249.339,120.29,249.956,119.529,249.956z"/>
			
				<linearGradient id="XMLID_00000010288680590123043080000015790487683052140419_" gradientUnits="userSpaceOnUse" x1="78.9865" y1="-16577.5859" x2="478.3204" y2="-16246.252" gradientTransform="matrix(1 0 0 -1 0 -15881.8896)">
				<stop  offset="0" style="stop-color:#ECECEC"/>
				<stop  offset="0.9901" style="stop-color:#DCDCDC"/>
			</linearGradient>
			<path id="XMLID_240_" style="fill:url(#XMLID_00000010288680590123043080000015790487683052140419_);" d="M465.805,394.686
				h-31.541c-0.762,0-1.38-0.618-1.38-1.379v-10.948c0-0.762,0.618-1.379,1.38-1.379h31.541c0.762,0,1.379,0.618,1.379,1.379v10.948
				C467.184,394.068,466.566,394.686,465.805,394.686z"/>
			
				<linearGradient id="XMLID_00000145047886120473908660000008728091312241953426_" gradientUnits="userSpaceOnUse" x1="239.2645" y1="-16175.3633" x2="638.5992" y2="-15844.0293" gradientTransform="matrix(1 0 0 -1 0 -15881.8896)">
				<stop  offset="0" style="stop-color:#ECECEC"/>
				<stop  offset="0.9901" style="stop-color:#DCDCDC"/>
			</linearGradient>
			<path id="XMLID_242_" style="fill:url(#XMLID_00000145047886120473908660000008728091312241953426_);" d="M500.105,96.989
				h-31.541c-0.762,0-1.379-0.618-1.379-1.379V84.662c0-0.762,0.618-1.38,1.379-1.38h31.541c0.762,0,1.38,0.618,1.38,1.38V95.61
				C501.484,96.372,500.867,96.989,500.105,96.989z"/>
			
				<linearGradient id="XMLID_00000082360333093003731740000015751370811356922249_" gradientUnits="userSpaceOnUse" x1="8.8308" y1="-16173.1982" x2="408.1649" y2="-15841.8652" gradientTransform="matrix(1 0 0 -1 0 -15881.8896)">
				<stop  offset="0" style="stop-color:#ECECEC"/>
				<stop  offset="0.9901" style="stop-color:#DCDCDC"/>
			</linearGradient>
			<path id="XMLID_245_" style="fill:url(#XMLID_00000082360333093003731740000015751370811356922249_);" d="M101.003,234.77H69.462
				c-0.762,0-1.379-0.618-1.379-1.379v-10.948c0-0.762,0.618-1.38,1.379-1.38h31.541c0.762,0,1.379,0.618,1.379,1.38v10.948
				C102.383,234.153,101.765,234.77,101.003,234.77z"/>
		</g>
		<g id="XMLID_140_">
			<g id="XMLID_192_">
				
					<linearGradient id="XMLID_00000111873431940162520950000018279213529478587280_" gradientUnits="userSpaceOnUse" x1="125.7349" y1="-16055.1582" x2="360.5904" y2="-16055.1582" gradientTransform="matrix(1 0 0 -1 0 -15881.8896)">
					<stop  offset="0" style="stop-color:#ECECEC"/>
					<stop  offset="0.9901" style="stop-color:#DCDCDC"/>
				</linearGradient>
				
					<rect id="XMLID_205_" x="125.735" y="73.584" style="fill:url(#XMLID_00000111873431940162520950000018279213529478587280_);" width="234.855" height="199.369"/>
				
					<linearGradient id="XMLID_00000163050107034166095630000002178692870137496234_" gradientUnits="userSpaceOnUse" x1="125.7349" y1="-16156.5234" x2="360.5904" y2="-16156.5234" gradientTransform="matrix(1 0 0 -1 0 -15881.8896)">
					<stop  offset="0" style="stop-color:#D6D7D7"/>
					<stop  offset="0.9901" style="stop-color:#DCDCDC"/>
				</linearGradient>
				
					<rect id="XMLID_202_" x="125.735" y="272.953" style="fill:url(#XMLID_00000163050107034166095630000002178692870137496234_);" width="234.855" height="3.363"/>
				
					<linearGradient id="XMLID_00000050642461469167516910000008622642770242458286_" gradientUnits="userSpaceOnUse" x1="243.1592" y1="-16174.4209" x2="243.1592" y2="-15943.8545" gradientTransform="matrix(1 0 0 -1 0 -15881.8896)">
					<stop  offset="0" style="stop-color:#ECECEC"/>
					<stop  offset="0.9901" style="stop-color:#FFFFFF"/>
				</linearGradient>
				
					<rect id="XMLID_199_" x="133.818" y="80.14" style="fill:url(#XMLID_00000050642461469167516910000008622642770242458286_);" width="218.683" height="186.259"/>
				<polygon id="XMLID_198_" style="opacity:0.2;fill:#FFFCFB;" points="352.501,132.681 352.501,164.353 219.282,80.14 
					269.368,80.14 				"/>
				<polygon id="XMLID_197_" style="opacity:0.2;fill:#FFFCFB;" points="352.501,176.217 352.501,193.424 173.31,80.14 
					200.513,80.14 				"/>
				<polygon id="XMLID_196_" style="fill:#FFFCFB;" points="352.501,210.273 352.501,266.4 308.62,266.4 133.818,155.901 
					133.818,80.14 146.639,80.14 				"/>
				
					<linearGradient id="XMLID_00000139274331043933062480000017122425359878698893_" gradientUnits="userSpaceOnUse" x1="243.1626" y1="-15943.25" x2="243.1626" y2="-16189.2949" gradientTransform="matrix(1 0 0 -1 0 -15881.8896)">
					<stop  offset="0" style="stop-color:#BDC2C2"/>
					<stop  offset="0.9901" style="stop-color:#DCDCDC"/>
				</linearGradient>
				<polygon id="XMLID_193_" style="fill:url(#XMLID_00000139274331043933062480000017122425359878698893_);" points="
					235.331,271.255 235.331,75.282 250.994,75.282 250.994,271.255 				"/>
			</g>
			<g id="XMLID_143_">
				<g id="XMLID_147_">
					
						<linearGradient id="XMLID_00000020388273256334879810000009907150751237160869_" gradientUnits="userSpaceOnUse" x1="120.0988" y1="-16051.4736" x2="366.2197" y2="-16051.4736" gradientTransform="matrix(1 0 0 -1 0 -15881.8896)">
						<stop  offset="0" style="stop-color:#ECECEC"/>
						<stop  offset="0.9901" style="stop-color:#DCDCDC"/>
					</linearGradient>
					<path id="XMLID_191_" style="fill:url(#XMLID_00000020388273256334879810000009907150751237160869_);" d="M364.772,171.032
						H121.547c-0.8,0-1.448-0.648-1.448-1.448l0,0c0-0.8,0.648-1.448,1.448-1.448h243.225c0.8,0,1.448,0.648,1.448,1.448l0,0
						C366.22,170.384,365.571,171.032,364.772,171.032z"/>
					
						<linearGradient id="XMLID_00000019673281201795724520000018418522063565503920_" gradientUnits="userSpaceOnUse" x1="120.0988" y1="-15955.4736" x2="366.2197" y2="-15955.4736" gradientTransform="matrix(1 0 0 -1 0 -15881.8896)">
						<stop  offset="0" style="stop-color:#ECECEC"/>
						<stop  offset="0.9901" style="stop-color:#DCDCDC"/>
					</linearGradient>
					<path id="XMLID_190_" style="fill:url(#XMLID_00000019673281201795724520000018418522063565503920_);" d="M364.772,75.032
						H121.547c-0.8,0-1.448-0.648-1.448-1.448l0,0c0-0.8,0.648-1.448,1.448-1.448h243.225c0.8,0,1.448,0.648,1.448,1.448l0,0
						C366.22,74.384,365.571,75.032,364.772,75.032z"/>
					
						<linearGradient id="XMLID_00000005237582634554265690000001867973838617684358_" gradientUnits="userSpaceOnUse" x1="120.0988" y1="-15961.4736" x2="366.2197" y2="-15961.4736" gradientTransform="matrix(1 0 0 -1 0 -15881.8896)">
						<stop  offset="0" style="stop-color:#ECECEC"/>
						<stop  offset="0.9901" style="stop-color:#DCDCDC"/>
					</linearGradient>
					<path id="XMLID_189_" style="fill:url(#XMLID_00000005237582634554265690000001867973838617684358_);" d="M364.772,81.032
						H121.547c-0.8,0-1.448-0.648-1.448-1.448l0,0c0-0.8,0.648-1.448,1.448-1.448h243.225c0.8,0,1.448,0.648,1.448,1.448l0,0
						C366.22,80.384,365.571,81.032,364.772,81.032z"/>
					
						<linearGradient id="XMLID_00000113329766781929149030000003398647587937553297_" gradientUnits="userSpaceOnUse" x1="120.0988" y1="-15967.4736" x2="366.2197" y2="-15967.4736" gradientTransform="matrix(1 0 0 -1 0 -15881.8896)">
						<stop  offset="0" style="stop-color:#ECECEC"/>
						<stop  offset="0.9901" style="stop-color:#DCDCDC"/>
					</linearGradient>
					<path id="XMLID_188_" style="fill:url(#XMLID_00000113329766781929149030000003398647587937553297_);" d="M364.772,87.032
						H121.547c-0.8,0-1.448-0.648-1.448-1.448l0,0c0-0.8,0.648-1.448,1.448-1.448h243.225c0.8,0,1.448,0.648,1.448,1.448l0,0
						C366.22,86.384,365.571,87.032,364.772,87.032z"/>
					
						<linearGradient id="XMLID_00000034072583156715533740000003310030670426663050_" gradientUnits="userSpaceOnUse" x1="120.0988" y1="-15973.4736" x2="366.2197" y2="-15973.4736" gradientTransform="matrix(1 0 0 -1 0 -15881.8896)">
						<stop  offset="0" style="stop-color:#ECECEC"/>
						<stop  offset="0.9901" style="stop-color:#DCDCDC"/>
					</linearGradient>
					<path id="XMLID_187_" style="fill:url(#XMLID_00000034072583156715533740000003310030670426663050_);" d="M364.772,93.032
						H121.547c-0.8,0-1.448-0.648-1.448-1.448l0,0c0-0.8,0.648-1.448,1.448-1.448h243.225c0.8,0,1.448,0.648,1.448,1.448l0,0
						C366.22,92.384,365.571,93.032,364.772,93.032z"/>
					
						<linearGradient id="XMLID_00000173156632204301299520000001971842008009928871_" gradientUnits="userSpaceOnUse" x1="120.0988" y1="-15979.4736" x2="366.2197" y2="-15979.4736" gradientTransform="matrix(1 0 0 -1 0 -15881.8896)">
						<stop  offset="0" style="stop-color:#ECECEC"/>
						<stop  offset="0.9901" style="stop-color:#DCDCDC"/>
					</linearGradient>
					<path id="XMLID_186_" style="fill:url(#XMLID_00000173156632204301299520000001971842008009928871_);" d="M364.772,99.032
						H121.547c-0.8,0-1.448-0.648-1.448-1.448l0,0c0-0.8,0.648-1.448,1.448-1.448h243.225c0.8,0,1.448,0.648,1.448,1.448l0,0
						C366.22,98.384,365.571,99.032,364.772,99.032z"/>
					
						<linearGradient id="XMLID_00000145767208187997268630000009176676055270107550_" gradientUnits="userSpaceOnUse" x1="120.0988" y1="-15985.4736" x2="366.2197" y2="-15985.4736" gradientTransform="matrix(1 0 0 -1 0 -15881.8896)">
						<stop  offset="0" style="stop-color:#ECECEC"/>
						<stop  offset="0.9901" style="stop-color:#DCDCDC"/>
					</linearGradient>
					<path id="XMLID_185_" style="fill:url(#XMLID_00000145767208187997268630000009176676055270107550_);" d="M364.772,105.032
						H121.547c-0.8,0-1.448-0.648-1.448-1.448l0,0c0-0.8,0.648-1.448,1.448-1.448h243.225c0.8,0,1.448,0.648,1.448,1.448l0,0
						C366.22,104.384,365.571,105.032,364.772,105.032z"/>
					
						<linearGradient id="XMLID_00000000908717994405090470000013662161381072135810_" gradientUnits="userSpaceOnUse" x1="120.0988" y1="-15991.4736" x2="366.2197" y2="-15991.4736" gradientTransform="matrix(1 0 0 -1 0 -15881.8896)">
						<stop  offset="0" style="stop-color:#ECECEC"/>
						<stop  offset="0.9901" style="stop-color:#DCDCDC"/>
					</linearGradient>
					<path id="XMLID_184_" style="fill:url(#XMLID_00000000908717994405090470000013662161381072135810_);" d="M364.772,111.032
						H121.547c-0.8,0-1.448-0.648-1.448-1.448l0,0c0-0.8,0.648-1.448,1.448-1.448h243.225c0.8,0,1.448,0.648,1.448,1.448l0,0
						C366.22,110.384,365.571,111.032,364.772,111.032z"/>
					
						<linearGradient id="XMLID_00000133511234546514737070000006357517525419999400_" gradientUnits="userSpaceOnUse" x1="120.0988" y1="-15997.4736" x2="366.2197" y2="-15997.4736" gradientTransform="matrix(1 0 0 -1 0 -15881.8896)">
						<stop  offset="0" style="stop-color:#ECECEC"/>
						<stop  offset="0.9901" style="stop-color:#DCDCDC"/>
					</linearGradient>
					<path id="XMLID_183_" style="fill:url(#XMLID_00000133511234546514737070000006357517525419999400_);" d="M364.772,117.032
						H121.547c-0.8,0-1.448-0.648-1.448-1.448l0,0c0-0.8,0.648-1.448,1.448-1.448h243.225c0.8,0,1.448,0.648,1.448,1.448l0,0
						C366.22,116.384,365.571,117.032,364.772,117.032z"/>
					
						<linearGradient id="XMLID_00000119079626098745153480000016328862777078455471_" gradientUnits="userSpaceOnUse" x1="120.0988" y1="-16003.4736" x2="366.2197" y2="-16003.4736" gradientTransform="matrix(1 0 0 -1 0 -15881.8896)">
						<stop  offset="0" style="stop-color:#ECECEC"/>
						<stop  offset="0.9901" style="stop-color:#DCDCDC"/>
					</linearGradient>
					<path id="XMLID_182_" style="fill:url(#XMLID_00000119079626098745153480000016328862777078455471_);" d="M364.772,123.032
						H121.547c-0.8,0-1.448-0.648-1.448-1.448l0,0c0-0.8,0.648-1.448,1.448-1.448h243.225c0.8,0,1.448,0.648,1.448,1.448l0,0
						C366.22,122.384,365.571,123.032,364.772,123.032z"/>
					
						<linearGradient id="XMLID_00000052089701436129135060000016075290169368775843_" gradientUnits="userSpaceOnUse" x1="120.0988" y1="-16009.4736" x2="366.2197" y2="-16009.4736" gradientTransform="matrix(1 0 0 -1 0 -15881.8896)">
						<stop  offset="0" style="stop-color:#ECECEC"/>
						<stop  offset="0.9901" style="stop-color:#DCDCDC"/>
					</linearGradient>
					<path id="XMLID_181_" style="fill:url(#XMLID_00000052089701436129135060000016075290169368775843_);" d="M364.772,129.032
						H121.547c-0.8,0-1.448-0.648-1.448-1.448l0,0c0-0.8,0.648-1.448,1.448-1.448h243.225c0.8,0,1.448,0.648,1.448,1.448l0,0
						C366.22,128.384,365.571,129.032,364.772,129.032z"/>
					
						<linearGradient id="XMLID_00000097463867155773437350000005000162383617190029_" gradientUnits="userSpaceOnUse" x1="120.0988" y1="-16015.4736" x2="366.2197" y2="-16015.4736" gradientTransform="matrix(1 0 0 -1 0 -15881.8896)">
						<stop  offset="0" style="stop-color:#ECECEC"/>
						<stop  offset="0.9901" style="stop-color:#DCDCDC"/>
					</linearGradient>
					<path id="XMLID_180_" style="fill:url(#XMLID_00000097463867155773437350000005000162383617190029_);" d="M364.772,135.032
						H121.547c-0.8,0-1.448-0.648-1.448-1.448l0,0c0-0.8,0.648-1.448,1.448-1.448h243.225c0.8,0,1.448,0.648,1.448,1.448l0,0
						C366.22,134.384,365.571,135.032,364.772,135.032z"/>
					
						<linearGradient id="XMLID_00000181045060731676183620000011536390907669450123_" gradientUnits="userSpaceOnUse" x1="120.0988" y1="-16021.4736" x2="366.2197" y2="-16021.4736" gradientTransform="matrix(1 0 0 -1 0 -15881.8896)">
						<stop  offset="0" style="stop-color:#ECECEC"/>
						<stop  offset="0.9901" style="stop-color:#DCDCDC"/>
					</linearGradient>
					<path id="XMLID_179_" style="fill:url(#XMLID_00000181045060731676183620000011536390907669450123_);" d="M364.772,141.032
						H121.547c-0.8,0-1.448-0.648-1.448-1.448l0,0c0-0.8,0.648-1.448,1.448-1.448h243.225c0.8,0,1.448,0.648,1.448,1.448l0,0
						C366.22,140.384,365.571,141.032,364.772,141.032z"/>
					
						<linearGradient id="XMLID_00000008138141327230939180000010844637372795897503_" gradientUnits="userSpaceOnUse" x1="120.0988" y1="-16027.4736" x2="366.2197" y2="-16027.4736" gradientTransform="matrix(1 0 0 -1 0 -15881.8896)">
						<stop  offset="0" style="stop-color:#ECECEC"/>
						<stop  offset="0.9901" style="stop-color:#DCDCDC"/>
					</linearGradient>
					<path id="XMLID_178_" style="fill:url(#XMLID_00000008138141327230939180000010844637372795897503_);" d="M364.772,147.032
						H121.547c-0.8,0-1.448-0.648-1.448-1.448l0,0c0-0.8,0.648-1.448,1.448-1.448h243.225c0.8,0,1.448,0.648,1.448,1.448l0,0
						C366.22,146.384,365.571,147.032,364.772,147.032z"/>
					
						<linearGradient id="XMLID_00000141445263361875116510000004738310167440870039_" gradientUnits="userSpaceOnUse" x1="120.0988" y1="-16033.4736" x2="366.2197" y2="-16033.4736" gradientTransform="matrix(1 0 0 -1 0 -15881.8896)">
						<stop  offset="0" style="stop-color:#ECECEC"/>
						<stop  offset="0.9901" style="stop-color:#DCDCDC"/>
					</linearGradient>
					<path id="XMLID_177_" style="fill:url(#XMLID_00000141445263361875116510000004738310167440870039_);" d="M364.772,153.032
						H121.547c-0.8,0-1.448-0.648-1.448-1.448l0,0c0-0.8,0.648-1.448,1.448-1.448h243.225c0.8,0,1.448,0.648,1.448,1.448l0,0
						C366.22,152.384,365.571,153.032,364.772,153.032z"/>
					
						<linearGradient id="XMLID_00000135687506424353523990000004168017056758676145_" gradientUnits="userSpaceOnUse" x1="120.0988" y1="-16039.4736" x2="366.2197" y2="-16039.4736" gradientTransform="matrix(1 0 0 -1 0 -15881.8896)">
						<stop  offset="0" style="stop-color:#ECECEC"/>
						<stop  offset="0.9901" style="stop-color:#DCDCDC"/>
					</linearGradient>
					<path id="XMLID_176_" style="fill:url(#XMLID_00000135687506424353523990000004168017056758676145_);" d="M364.772,159.032
						H121.547c-0.8,0-1.448-0.648-1.448-1.448l0,0c0-0.8,0.648-1.448,1.448-1.448h243.225c0.8,0,1.448,0.648,1.448,1.448l0,0
						C366.22,158.384,365.571,159.032,364.772,159.032z"/>
					
						<linearGradient id="XMLID_00000067948105889260659300000015904822152567361163_" gradientUnits="userSpaceOnUse" x1="120.0988" y1="-16045.4736" x2="366.2197" y2="-16045.4736" gradientTransform="matrix(1 0 0 -1 0 -15881.8896)">
						<stop  offset="0" style="stop-color:#ECECEC"/>
						<stop  offset="0.9901" style="stop-color:#DCDCDC"/>
					</linearGradient>
					<path id="XMLID_170_" style="fill:url(#XMLID_00000067948105889260659300000015904822152567361163_);" d="M364.772,165.032
						H121.547c-0.8,0-1.448-0.648-1.448-1.448l0,0c0-0.8,0.648-1.448,1.448-1.448h243.225c0.8,0,1.448,0.648,1.448,1.448l0,0
						C366.22,164.384,365.571,165.032,364.772,165.032z"/>
				</g>
				
					<linearGradient id="XMLID_00000077286835947471458920000007397729523071233441_" gradientUnits="userSpaceOnUse" x1="120.0988" y1="-15946.3164" x2="366.2197" y2="-15946.3164" gradientTransform="matrix(1 0 0 -1 0 -15881.8896)">
					<stop  offset="0" style="stop-color:#D6D7D7"/>
					<stop  offset="0.9901" style="stop-color:#DCDCDC"/>
				</linearGradient>
				<path id="XMLID_136_" style="fill:url(#XMLID_00000077286835947471458920000007397729523071233441_);" d="M364.523,67.323
					H121.795c-0.937,0-1.697-0.76-1.697-1.697v-2.399c0-0.937,0.759-1.697,1.697-1.697h242.728c0.937,0,1.697,0.76,1.697,1.697
					v2.399C366.22,66.564,365.46,67.323,364.523,67.323z"/>
				
					<linearGradient id="XMLID_00000064356285099824605980000016796134331426572189_" gradientUnits="userSpaceOnUse" x1="348.1607" y1="-15950.4014" x2="348.1607" y2="-16057.0186" gradientTransform="matrix(1 0 0 -1 0 -15881.8896)">
					<stop  offset="0" style="stop-color:#BDC2C2"/>
					<stop  offset="0.9901" style="stop-color:#DCDCDC"/>
				</linearGradient>
				
					<rect id="XMLID_145_" x="347.327" y="67.323" style="fill:url(#XMLID_00000064356285099824605980000016796134331426572189_);" width="1.667" height="108.874"/>
				
					<linearGradient id="XMLID_00000052813565494803394100000017910588116175813516_" gradientUnits="userSpaceOnUse" x1="346.2631" y1="-16060.5244" x2="350.0583" y2="-16060.5244" gradientTransform="matrix(1 0 0 -1 0 -15881.8896)">
					<stop  offset="0" style="stop-color:#ECECEC"/>
					<stop  offset="0.9901" style="stop-color:#DCDCDC"/>
				</linearGradient>
				<path id="XMLID_144_" style="fill:url(#XMLID_00000052813565494803394100000017910588116175813516_);" d="M348.896,182.572
					h-1.471c-0.642,0-1.162-0.52-1.162-1.162v-5.55c0-0.642,0.52-1.162,1.162-1.162h1.471c0.642,0,1.162,0.52,1.162,1.162v5.55
					C350.058,182.052,349.538,182.572,348.896,182.572z"/>
			</g>
		</g>
		<g id="XMLID_164_">
			
				<linearGradient id="XMLID_00000176736930870756868600000013063238751340698025_" gradientUnits="userSpaceOnUse" x1="125.9454" y1="-16267.9775" x2="125.9454" y2="-16188.9775" gradientTransform="matrix(1 0 0 -1 0 -15881.8896)">
				<stop  offset="0" style="stop-color:#ECECEC"/>
				<stop  offset="0.9901" style="stop-color:#E6E6E6"/>
			</linearGradient>
			<path id="XMLID_267_" style="fill:url(#XMLID_00000176736930870756868600000013063238751340698025_);" d="M143.688,363.437
				c-0.394-2.179-0.341-4.407,0.208-6.553c1.838-7.183,3.942-20.694-0.733-35.291c-7.798-24.35-39.405-45.916-39.405-45.916
				s8.579,35.934,15.632,51.234c5.164,11.202,14.198,23.95,19.211,30.662c1.391,1.862,2.344,4.009,2.758,6.296
				c5.11,28.276,4.37,50.166,4.357,50.505l2.372,0.092C148.101,414.125,148.853,392.011,143.688,363.437z"/>
			
				<linearGradient id="XMLID_00000082349576158020154150000000235608975218595765_" gradientUnits="userSpaceOnUse" x1="188.3595" y1="-16313.9248" x2="167.3381" y2="-16250.4316" gradientTransform="matrix(1 0 0 -1 0 -15881.8896)">
				<stop  offset="0" style="stop-color:#ECECEC"/>
				<stop  offset="0.9901" style="stop-color:#DCDCDC"/>
			</linearGradient>
			<path id="XMLID_264_" style="fill:url(#XMLID_00000082349576158020154150000000235608975218595765_);" d="M168.889,340.542
				c6.278-19.85,9.198-43.234,9.198-43.234s-28.339,23.384-30.662,41.477c-1.423,11.082,0.346,19.971,1.932,25.202
				c0.673,2.221,0.918,4.543,0.669,6.851c-2.869,26.627-0.622,47.033-0.586,47.345l2.133-0.246
				c-0.035-0.299-2.12-19.287,0.336-44.446c0.337-3.446,1.725-6.702,3.905-9.392C159.869,359.095,165.668,350.724,168.889,340.542z"
				/>
			
				<linearGradient id="XMLID_00000072992034038004328980000012988397283544687772_" gradientUnits="userSpaceOnUse" x1="174.4688" y1="-16308.3428" x2="174.4688" y2="-16229.3428" gradientTransform="matrix(1 0 0 -1 0 -15881.8896)">
				<stop  offset="0" style="stop-color:#ECECEC"/>
				<stop  offset="0.9901" style="stop-color:#E6E6E6"/>
			</linearGradient>
			<path id="XMLID_261_" style="fill:url(#XMLID_00000072992034038004328980000012988397283544687772_);" d="M197.698,296.385
				c0,0-30.539,11.333-38.523,36.267c-4.86,15.176-2.564,29.203-0.665,36.469c0.533,2.039,0.504,4.167-0.006,6.212
				c-7.154,28.693-7.264,58.396-7.264,58.791h2.432c0-0.388,0.111-29.382,7.019-57.522c0.686-2.795,1.905-5.423,3.621-7.734
				c5.208-7.015,14.072-19.636,19.204-30.771C190.739,322.43,197.698,296.385,197.698,296.385z"/>
			
				<linearGradient id="XMLID_00000051368160987559587440000011711818913603506094_" gradientUnits="userSpaceOnUse" x1="111.9865" y1="-16278.6084" x2="121.4189" y2="-16221.7363" gradientTransform="matrix(1 0 0 -1 0 -15881.8896)">
				<stop  offset="0" style="stop-color:#ECECEC"/>
				<stop  offset="0.9901" style="stop-color:#DCDCDC"/>
			</linearGradient>
			<path id="XMLID_255_" style="fill:url(#XMLID_00000051368160987559587440000011711818913603506094_);" d="M143.815,401.591
				c-0.76-10.438-3.605-19.835-7.052-27.718c-0.69-1.579-0.934-3.306-0.713-5.015c0.427-3.293,0.603-8.406-0.713-14.904
				c-2.478-12.234-18.715-38.663-42.226-40.212c0,0,8.112,13.041,12.286,23.952c5.281,13.805,12.819,28.245,25.32,33.787
				c2.198,0.975,3.92,2.799,4.837,5.022c3.013,7.304,5.433,15.837,6.118,25.242L143.815,401.591z"/>
			<g id="XMLID_165_">
				
					<linearGradient id="XMLID_00000078732452308377445760000010306960573148705666_" gradientUnits="userSpaceOnUse" x1="125.2989" y1="-16300.7334" x2="170.967" y2="-16300.7334" gradientTransform="matrix(1 0 0 -1 0 -15881.8896)">
					<stop  offset="0" style="stop-color:#ECECEC"/>
					<stop  offset="0.9901" style="stop-color:#DCDCDC"/>
				</linearGradient>
				<path id="XMLID_169_" style="fill:url(#XMLID_00000078732452308377445760000010306960573148705666_);" d="M133.333,455.132h29.6
					l8.018-69.872c0.165-1.441-0.962-2.705-2.412-2.705h-40.812c-1.451,0-2.577,1.264-2.412,2.705L133.333,455.132z"/>
			</g>
		</g>
		<g id="XMLID_41_">
			<g id="XMLID_74_">
				
					<linearGradient id="XMLID_00000181808418216589936900000012882406159992183173_" gradientUnits="userSpaceOnUse" x1="268.3795" y1="-16428.3457" x2="268.3795" y2="-16138.7959" gradientTransform="matrix(1 0 0 -1 0 -15881.8896)">
					<stop  offset="0" style="stop-color:#000A6A"/>
					<stop  offset="1" style="stop-color:#4295F6"/>
				</linearGradient>
				<path id="XMLID_68_" style="fill:url(#XMLID_00000181808418216589936900000012882406159992183173_);" d="M292.199,440.052
					l-7.498,5.131l-6.905-3.219c-1.296-15.297-7.863-35.492-6.856-61.616c0.417-10.815,3.357-17.705,4.943-21.691
					c-1.087-4.65-9.7-21.047-12.753-26.88c-1.135-2.157-2.285-4.427-3.436-6.792c-2.845-5.865-5.737-12.273-8.518-18.873
					c-6.232-14.622-12.097-30.171-16.588-42.94h44.522c0,0,19.816,62.708,23.06,83.675
					C302.171,346.847,291.304,437.431,292.199,440.052z"/>
				
					<linearGradient id="XMLID_00000057845005734061532790000008185979125101430405_" gradientUnits="userSpaceOnUse" x1="265.9938" y1="-16188.6016" x2="245.9306" y2="-16188.6016" gradientTransform="matrix(1 0 0 -1 0 -15881.8896)">
					<stop  offset="0" style="stop-color:#251458"/>
					<stop  offset="1" style="stop-color:#391A7D"/>
				</linearGradient>
				<path id="XMLID_67_" style="opacity:0.5;fill:url(#XMLID_00000057845005734061532790000008185979125101430405_);" d="
					M259.694,324.986c-2.845-5.865-5.737-12.273-8.518-18.873l6.478-17.675L259.694,324.986z"/>
				
					<linearGradient id="XMLID_00000018951229949921417730000007633268138903866538_" gradientUnits="userSpaceOnUse" x1="215.1772" y1="-16416.7676" x2="215.1772" y2="-16127.2168" gradientTransform="matrix(1 0 0 -1 0 -15881.8896)">
					<stop  offset="0" style="stop-color:#000A6A"/>
					<stop  offset="1" style="stop-color:#4295F6"/>
				</linearGradient>
				<path id="XMLID_66_" style="fill:url(#XMLID_00000018951229949921417730000007633268138903866538_);" d="M212.748,263.178
					c-8.523,19.547,7.998,79.065,7.438,85.013c-3.069,3.673-8.047,8.474-22.333,28.681c-14.259,20.224-16.257,33.316-22.232,43.611
					c-0.939,1.759-1.512,2.903-2.837,4.485l3.58,8.631l5.592-0.547c6.448-4.879,30.006-29.679,48.103-50.717
					c11.891-13.823,21.424-26.021,22.197-29.877c6.367-31.742,5.239-89.281,5.239-89.281H212.748z"/>
				
					<linearGradient id="XMLID_00000087386883888697453010000017263116305720452281_" gradientUnits="userSpaceOnUse" x1="271.1938" y1="-16329.4805" x2="321.1405" y2="-16329.4805" gradientTransform="matrix(1 0 0 -1 0 -15881.8896)">
					<stop  offset="0" style="stop-color:#000A6A"/>
					<stop  offset="1" style="stop-color:#4295F6"/>
				</linearGradient>
				<path id="XMLID_103_" style="fill:url(#XMLID_00000087386883888697453010000017263116305720452281_);" d="M316.936,455.136
					H276.39c-3.157-4.862,0.093-9.694,1.41-13.171c0,0,7.545,2.323,14.392-1.92c3.088,1.759,8.284,3.974,10.888,5.545
					c3.074,1.853,10.459,4.243,12.835,4.941C317.674,451.055,318.574,453.726,316.936,455.136z"/>
				
					<linearGradient id="XMLID_00000101820483633781060210000012723866062755156119_" gradientUnits="userSpaceOnUse" x1="172.1512" y1="-16332.1436" x2="182.4953" y2="-16319.1064" gradientTransform="matrix(1 0 0 -1 0 -15881.8896)">
					<stop  offset="0" style="stop-color:#000A6A"/>
					<stop  offset="1" style="stop-color:#4295F6"/>
				</linearGradient>
				<path id="XMLID_45_" style="fill:url(#XMLID_00000101820483633781060210000012723866062755156119_);" d="M178.323,455.782
					c-3.276-3.434-14.902-19.382-16.804-22.183c0.099-2.732,2.862-5.53,7.174-7.373c1.344-0.575,2.732-0.951,4.09-1.258
					c2.477,4.446,9.172,8.084,9.172,8.084c0.829,3.353,1.631,10.056,2.294,13.574c3.995,1.964,12.474,4.678,8.656,9.089
					C189.976,455.982,182.451,456.048,178.323,455.782z"/>
			</g>
			<g id="XMLID_101_">
				
					<linearGradient id="XMLID_00000125589016336517844320000002657240890337602966_" gradientUnits="userSpaceOnUse" x1="289.4106" y1="-16071.8867" x2="322.933" y2="-16098.9756" gradientTransform="matrix(1 0 0 -1 0 -15881.8896)">
					<stop  offset="0" style="stop-color:#F5C49F"/>
					<stop  offset="1" style="stop-color:#EAC8B0"/>
				</linearGradient>
				<path id="XMLID_72_" style="fill:url(#XMLID_00000125589016336517844320000002657240890337602966_);" d="M308.141,191.602
					l-22.643,4.24c0,0,17.25,18.83,27.55,26.765l10.038-10.885C316.395,202.009,308.141,191.602,308.141,191.602z"/>
				
					<linearGradient id="XMLID_00000070833934545685332780000012547561860716480154_" gradientUnits="userSpaceOnUse" x1="662.2914" y1="276.3885" x2="571.3447" y2="225.623" gradientTransform="matrix(0.936 -0.3518 0.3518 0.936 -346.0745 198.0789)">
					<stop  offset="0" style="stop-color:#F5C49F"/>
					<stop  offset="1" style="stop-color:#DDA48F"/>
				</linearGradient>
				<path id="XMLID_71_" style="fill:url(#XMLID_00000070833934545685332780000012547561860716480154_);" d="M362.771,225.793
					c0.975,0.795,1.123,1.536,2.676,2.861c0.617,0.527,2.833,2.422,4.396,0.215c0.833,0.004,2.605,0.096,3.327-1.692
					c0.702-0.052,2.555,0.041,3.202-1.503c1.427-0.521,2.365-2.481,3.484-3.08c2.531-1.566,3.895-3.383,2.874-4.643
					c-1.021-1.26-8.193-0.8-9.923-1.398c-1.73-0.599-8.47-0.316-10.406,0.193c-1.936,0.509-33.78-9.357-41.969-8.803l-8.551,13.525
					c0.538,0.716,0.926,0.999,1.477,1.34C327.274,228.035,361.02,226.947,362.771,225.793z"/>
				
					<linearGradient id="XMLID_00000158717050779589085540000000563007949533643197_" gradientUnits="userSpaceOnUse" x1="289.3012" y1="-16071.1104" x2="166.0722" y2="-16071.1104" gradientTransform="matrix(1 0 0 -1 0 -15881.8896)">
					<stop  offset="0" style="stop-color:#3EC1FF"/>
					<stop  offset="1" style="stop-color:#28BAFF"/>
				</linearGradient>
				<path id="XMLID_97_" style="fill:url(#XMLID_00000158717050779589085540000000563007949533643197_);" d="M312.606,196.242
					c0,0-7.534,10.007-16.685,13.811c-0.814,0.349-1.648,0.645-2.494,0.877l-11.381-10.409l-1.49-1.363l6.71-31.648
					C287.266,167.51,295.773,171.632,312.606,196.242z"/>
				
					<linearGradient id="XMLID_00000106104897867818305330000003339669551361059473_" gradientUnits="userSpaceOnUse" x1="271.0838" y1="-16085.8193" x2="302.3177" y2="-16085.8193" gradientTransform="matrix(1 0 0 -1 0 -15881.8896)">
					<stop  offset="0" style="stop-color:#3949B2"/>
					<stop  offset="1" style="stop-color:#0B1B6A"/>
				</linearGradient>
				<path id="XMLID_80_" style="opacity:0.4;fill:url(#XMLID_00000106104897867818305330000003339669551361059473_);" d="
					M295.921,210.053c-0.814,0.349-1.648,0.645-2.494,0.877l-11.381-10.409l0.158-0.581l1.321-3.012l3.607,0.001
					C287.133,196.93,289.774,202.127,295.921,210.053z"/>
				
					<linearGradient id="XMLID_00000159471472910469166600000009879370698554599302_" gradientUnits="userSpaceOnUse" x1="282.9089" y1="215.1041" x2="219.2349" y2="215.1041" gradientTransform="matrix(0.9955 0.0943 -0.0943 0.9955 22.1162 -24.5225)">
					<stop  offset="0" style="stop-color:#3EC1FF"/>
					<stop  offset="1" style="stop-color:#28BAFF"/>
				</linearGradient>
				<path id="XMLID_65_" style="fill:url(#XMLID_00000159471472910469166600000009879370698554599302_);" d="M256.621,158.018
					c0,0-20.294,2.394-26.061,9.513c-12.217,15.078-9.798,47.236-13.878,64.908c-4.08,17.672-8.19,28.795-3.933,30.738
					c18.082,8.254,65.016,7.394,67.254-0.005c0.801-8.538-0.032-17.914,5.496-52.241c2.351-14.599,10.53-36.103,3.464-42.116
					c-1.635-1.392-7.163-5.31-13.232-7.851C269.493,158.353,262.656,157.148,256.621,158.018z"/>
			</g>
			<g id="XMLID_47_">
				<g id="XMLID_62_">
					
						<linearGradient id="XMLID_00000020373815740960097000000008438629411068444860_" gradientUnits="userSpaceOnUse" x1="255.1047" y1="-16033.834" x2="288.7781" y2="-16028.627" gradientTransform="matrix(0.9955 0.0943 0.0943 -0.9955 1519.7891 -15835.6855)">
						<stop  offset="0" style="stop-color:#F5C49F"/>
						<stop  offset="1" style="stop-color:#EAC8B0"/>
					</linearGradient>
					<path id="XMLID_79_" style="fill:url(#XMLID_00000020373815740960097000000008438629411068444860_);" d="M275.729,160.964
						c-6.814,3.661-20.416-0.839-19.109-2.946c0.588-0.956,1.895-4.776,2.446-6.521c1.292-4.148,1.436-7.874,2.219-12.583
						l14.79,4.177c-0.45,3.569-0.778,6.186-0.891,8.568c-0.149,2.426-0.082,4.599,0.255,7.312
						C275.49,159.441,275.649,160.459,275.729,160.964z"/>
				</g>
				<path id="XMLID_61_" style="fill:#EF8F73;" d="M275.438,158.97c-6.675-2.061-10.065-9.156-10.065-9.156l5.956-0.351l3.853,2.195
					C275.034,154.084,275.101,156.258,275.438,158.97z"/>
				<g id="XMLID_58_">
					
						<linearGradient id="XMLID_00000135681911495653772740000006851192315159167155_" gradientUnits="userSpaceOnUse" x1="303.8953" y1="-16010.0313" x2="255.4152" y2="-16008.9092" gradientTransform="matrix(0.9977 0.0688 0.0688 -0.9977 1094.6943 -15861.7441)">
						<stop  offset="0" style="stop-color:#3949B2"/>
						<stop  offset="1" style="stop-color:#0B1B6A"/>
					</linearGradient>
					<path id="XMLID_102_" style="fill:url(#XMLID_00000135681911495653772740000006851192315159167155_);" d="M290.119,121.929
						c1.148,1.031,2.428,2.66,1.758,7.617c-0.531,3.925-1.828,7.6-7.186,10.205c-1.304,0.634-2.74-9.321-3-10.747"/>
				</g>
				<g id="XMLID_55_">
					
						<linearGradient id="XMLID_00000169517335351087495690000005753267221047527814_" gradientUnits="userSpaceOnUse" x1="260.9533" y1="-16019.7061" x2="293.7623" y2="-16014.6318" gradientTransform="matrix(0.9955 0.0943 0.0943 -0.9955 1519.7891 -15835.6855)">
						<stop  offset="0" style="stop-color:#F5C49F"/>
						<stop  offset="1" style="stop-color:#EAC8B0"/>
					</linearGradient>
					<path id="XMLID_105_" style="fill:url(#XMLID_00000169517335351087495690000005753267221047527814_);" d="M290.289,127.389
						c0.481-5.127-2.548-5.864-7.241-8.274c-5.023-2.579-11.447-2.594-16.56-0.26c-8.267,3.775-10.227,14.538-6.877,22.986
						c3.351,8.448,6.752,10.415,9.05,11.792c4.109,2.462,12.316,4.106,14.558,1.981
						C287.244,151.801,289.716,133.495,290.289,127.389z"/>
				</g>
				<g id="XMLID_52_">
					
						<linearGradient id="XMLID_00000008136046495711928030000005790605736829211800_" gradientUnits="userSpaceOnUse" x1="304.0244" y1="-16009.0176" x2="260.9007" y2="-16008.0195" gradientTransform="matrix(0.9977 0.0688 0.0688 -0.9977 1094.6943 -15861.7441)">
						<stop  offset="0" style="stop-color:#3949B2"/>
						<stop  offset="1" style="stop-color:#0B1B6A"/>
					</linearGradient>
					<path id="XMLID_107_" style="fill:url(#XMLID_00000008136046495711928030000005790605736829211800_);" d="M267.882,112.451
						c-1.375,0.88-2.776,2.095-3.604,3.501c-2.672-0.899-6.699,1.451-8.014,3.944c-5.878,11.143,1.008,23.636,4.067,25.759
						c0.114-0.8,0.236-1.305,0.302-1.544c0.419-1.517,1.113-6.263,1.533-6.951c0.421-0.688,5.95-10.493,5.95-10.493
						c2.213,0.859,11.621,2.287,14.013,2.36c2.947,0.09,6.096,0.49,8.915-0.682c4.34-1.805,7.845-10.389,0.448-10.655
						c1.255-2.708-0.457-5.981-3.39-5.636c-2.246,0.264-5.317,1.76-8.784,1.453C280.704,108.224,269.689,111.294,267.882,112.451z"
						/>
				</g>
				<g id="XMLID_49_">
					
						<linearGradient id="XMLID_00000114038144007008696050000015914033454250230709_" gradientUnits="userSpaceOnUse" x1="258.0671" y1="-16022.3135" x2="286.906" y2="-16017.8535" gradientTransform="matrix(0.9955 0.0943 0.0943 -0.9955 1519.7891 -15835.6855)">
						<stop  offset="0" style="stop-color:#F5C49F"/>
						<stop  offset="1" style="stop-color:#EAC8B0"/>
					</linearGradient>
					<path id="XMLID_108_" style="fill:url(#XMLID_00000114038144007008696050000015914033454250230709_);" d="M265.586,143.393
						c-0.719,1.394-2.844,1.549-4.291,0.945c-1.447-0.604-2.465-2.041-2.737-3.586c-0.272-1.544-0.161-3.376,0.755-4.649
						c1.071-1.488,2.633-0.996,3.171-0.639c0.538,0.358,0.944,0.878,1.34,1.389C263.824,136.854,267.124,140.411,265.586,143.393z"
						/>
				</g>
				
					<linearGradient id="XMLID_00000004547855074056922540000008347739815002662828_" gradientUnits="userSpaceOnUse" x1="290.252" y1="130.8553" x2="243.7263" y2="131.9324" gradientTransform="matrix(0.9955 0.0943 -0.0943 0.9955 22.1162 -24.5225)">
					<stop  offset="0" style="stop-color:#3949B2"/>
					<stop  offset="1" style="stop-color:#0B1B6A"/>
				</linearGradient>
				<path id="XMLID_48_" style="fill:url(#XMLID_00000004547855074056922540000008347739815002662828_);" d="M273.637,126.98
					c0,0-0.66,5.152-3.285,6.848c-1.419,0.917-2.833,0.785-3.053,1.517c-0.22,0.731-0.886,4.055-0.886,4.055l-2.237-0.212
					c0,0-0.015-2.102-1.243-3.363c-1.229-1.261-0.69-8.534-0.69-8.534s2.025-2.316,2.52-2.771c0.495-0.455,2.223-1.445,3.027-1.619
					c0.805-0.175,2.637-0.453,2.93-0.375C271.014,122.604,273.637,126.98,273.637,126.98z"/>
			</g>
			<g id="XMLID_76_">
				
					<linearGradient id="XMLID_00000003826535166094354760000008430961203049906589_" gradientUnits="userSpaceOnUse" x1="319.2649" y1="-16299.624" x2="312.2578" y2="-16337.0723" gradientTransform="matrix(1 0 0 -1 0 -15881.8896)">
					<stop  offset="0" style="stop-color:#3C698A"/>
					<stop  offset="0.1239" style="stop-color:#345E80"/>
					<stop  offset="1" style="stop-color:#01103F"/>
				</linearGradient>
				<path id="XMLID_25_" style="fill:url(#XMLID_00000003826535166094354760000008430961203049906589_);" d="M299.301,442.61
					c0,0-1.999,2.027-2.797,4.531c-1.231,3.86-0.336,7.999-0.336,7.999h32.837c0,0,2.517-2.942-0.252-4.727
					c-2.899-1.868-15.915-4.671-15.915-4.671S304.504,447.393,299.301,442.61z"/>
				
					<linearGradient id="XMLID_00000105413320357613924510000013400314314520706972_" gradientUnits="userSpaceOnUse" x1="393.7538" y1="-16296.3848" x2="386.1837" y2="-16336.8428" gradientTransform="matrix(1 0 0 -1 0 -15881.8896)">
					<stop  offset="0" style="stop-color:#3C698A"/>
					<stop  offset="0.1239" style="stop-color:#345E80"/>
					<stop  offset="1" style="stop-color:#01103F"/>
				</linearGradient>
				<path id="XMLID_77_" style="fill:url(#XMLID_00000105413320357613924510000013400314314520706972_);" d="M373.184,442.61
					c0,0-1.999,2.027-2.797,4.531c-1.231,3.86-0.336,7.999-0.336,7.999h32.837c0,0,2.518-2.942-0.252-4.727
					c-2.899-1.868-17.243-6.573-17.243-6.573S378.387,447.393,373.184,442.61z"/>
				
					<linearGradient id="XMLID_00000095337287640478155660000010276066255056910208_" gradientUnits="userSpaceOnUse" x1="422.0236" y1="-16181.3584" x2="410.7114" y2="-16167.9707" gradientTransform="matrix(1 0 0 -1 0 -15881.8896)">
					<stop  offset="0" style="stop-color:#F5C49F"/>
					<stop  offset="1" style="stop-color:#CA9A8F"/>
				</linearGradient>
				<path id="XMLID_29_" style="fill:url(#XMLID_00000095337287640478155660000010276066255056910208_);" d="M410.288,292.073
					c0,0,2.069,1.734,2.572,3.357c0.504,1.622,1.579,4.393,1.579,4.393l9.218-7.749l-10.797-3.089l-1.958-0.547L410.288,292.073z"/>
				
					<linearGradient id="XMLID_00000179615698243761502320000006476375563356174214_" gradientUnits="userSpaceOnUse" x1="398.0026" y1="-16153.5332" x2="372.0187" y2="-16122.7822" gradientTransform="matrix(1 0 0 -1 0 -15881.8896)">
					<stop  offset="0" style="stop-color:#F5C49F"/>
					<stop  offset="1" style="stop-color:#CA9A8F"/>
				</linearGradient>
				<path id="XMLID_27_" style="fill:url(#XMLID_00000179615698243761502320000006476375563356174214_);" d="M386.345,239.601
					l6.431,15.775c0,0,19.804,28.002,22.657,30.519l-5.145,6.178c0,0-26.857-17.733-33.553-27.523
					c-4.53-6.624-6.247-12.81-6.247-12.81"/>
				
					<linearGradient id="XMLID_00000173153271580601821980000007787438561409985942_" gradientUnits="userSpaceOnUse" x1="373.6505" y1="-16073.5107" x2="335.8003" y2="-16275.7979" gradientTransform="matrix(1 0 0 -1 0 -15881.8896)">
					<stop  offset="0" style="stop-color:#3C5F9A"/>
					<stop  offset="0.1427" style="stop-color:#33538D"/>
					<stop  offset="1" style="stop-color:#01103F"/>
				</linearGradient>
				<path id="XMLID_100_" style="fill:url(#XMLID_00000173153271580601821980000007787438561409985942_);" d="M383.434,352.456
					l-27.617,10.754c-0.967-1.262-3.155-4.243-6.135-8.74h-0.013c-3.236-4.887-7.411-11.56-11.936-19.736
					c-3.813-6.874-7.867-14.809-11.841-23.629c-4.739-10.526-9.922-27.644-7.384-37.699c2.457-9.599,17.494-10.808,22.609-10.781
					C343.452,262.664,381.192,335.029,383.434,352.456z"/>
				
					<linearGradient id="XMLID_00000006694880725278175590000010754206665568477867_" gradientUnits="userSpaceOnUse" x1="325.3651" y1="-16212.9766" x2="365.7413" y2="-16219.332" gradientTransform="matrix(1 0 0 -1 0 -15881.8896)">
					<stop  offset="0" style="stop-color:#3C698A"/>
					<stop  offset="0.1239" style="stop-color:#345E80"/>
					<stop  offset="1" style="stop-color:#01103F"/>
				</linearGradient>
				<path id="XMLID_96_" style="opacity:0.5;fill:url(#XMLID_00000006694880725278175590000010754206665568477867_);" d="
					M349.681,354.47h-0.013c-3.236-4.887-7.411-11.56-11.936-19.736l-1.02-21.418C336.713,313.316,348.084,350.455,349.681,354.47z"
					/>
				
					<linearGradient id="XMLID_00000097499816607260424070000016461513817095264409_" gradientUnits="userSpaceOnUse" x1="379.2929" y1="-16238.4873" x2="337.7032" y2="-16460.7598" gradientTransform="matrix(1 0 0 -1 0 -15881.8896)">
					<stop  offset="0" style="stop-color:#3C5F9A"/>
					<stop  offset="0.1427" style="stop-color:#33538D"/>
					<stop  offset="1" style="stop-color:#01103F"/>
				</linearGradient>
				<path id="XMLID_38_" style="fill:url(#XMLID_00000097499816607260424070000016461513817095264409_);" d="M371.073,445.519
					c3.829,0.907,11.071,0.099,14.321-1.678c0.063-30.047-1.835-89.925-1.963-91.382l-27.088,9.261
					C348.061,381.951,369.001,440.243,371.073,445.519z"/>
				
					<linearGradient id="XMLID_00000019650179533481683530000002624981003941709502_" gradientUnits="userSpaceOnUse" x1="330.2794" y1="-16233.4707" x2="285.4585" y2="-16473.0137" gradientTransform="matrix(1 0 0 -1 0 -15881.8896)">
					<stop  offset="0" style="stop-color:#3C5F9A"/>
					<stop  offset="0.1427" style="stop-color:#33538D"/>
					<stop  offset="1" style="stop-color:#01103F"/>
				</linearGradient>
				<path id="XMLID_40_" style="fill:url(#XMLID_00000019650179533481683530000002624981003941709502_);" d="M315.716,369.973
					c-16.222,29.264-15.606,62.612-16.415,72.637c3.764,3.978,11.02,3.748,13.538,3.133c0.788-0.193,33.033-65.479,31.78-83.1
					l-24.754,0.56L315.716,369.973z"/>
				
					<linearGradient id="XMLID_00000108310081680247879950000006664403638792007353_" gradientUnits="userSpaceOnUse" x1="344.601" y1="-16072.1826" x2="303.8884" y2="-16289.7686" gradientTransform="matrix(1 0 0 -1 0 -15881.8896)">
					<stop  offset="0" style="stop-color:#3C5F9A"/>
					<stop  offset="0.1427" style="stop-color:#33538D"/>
					<stop  offset="1" style="stop-color:#01103F"/>
				</linearGradient>
				<path id="XMLID_26_" style="fill:url(#XMLID_00000108310081680247879950000006664403638792007353_);" d="M326.572,270.572
					l-25.651,4.41c-9.934,16.263-13.055,34.825-7.132,48.289c1.561,3.549,14.743,31.568,23.332,44.364l27.534-3.062
					C346.927,350.234,326.572,270.572,326.572,270.572z"/>
				
					<linearGradient id="XMLID_00000080184678958299408860000000431128420425010107_" gradientUnits="userSpaceOnUse" x1="377.8474" y1="-16126.1416" x2="302.1779" y2="-16196.7861" gradientTransform="matrix(1 0 0 -1 0 -15881.8896)">
					<stop  offset="0" style="stop-color:#4663C5"/>
					<stop  offset="1" style="stop-color:#398EF6"/>
				</linearGradient>
				<path id="XMLID_99_" style="fill:url(#XMLID_00000080184678958299408860000000431128420425010107_);" d="M390.523,249.198
					c-3.504,3.679-12.191,7.129-18.568,9.156c-0.698,0.228-1.369,0.43-2,0.618c-0.9-1.195-3.799-5.719-5.8-8.888
					c-1.034-1.638-1.826-2.9-1.987-3.169l18.742-22.327C380.91,224.589,386.522,237.128,390.523,249.198z"/>
				
					<linearGradient id="XMLID_00000023272623716995241190000002933819622170313894_" gradientUnits="userSpaceOnUse" x1="375.7166" y1="-16128.9561" x2="367.2857" y2="-16136.8271" gradientTransform="matrix(1 0 0 -1 0 -15881.8896)">
					<stop  offset="0" style="stop-color:#4663E1"/>
					<stop  offset="1" style="stop-color:#398EF6"/>
				</linearGradient>
				<path id="XMLID_94_" style="opacity:0.5;fill:url(#XMLID_00000023272623716995241190000002933819622170313894_);" d="
					M371.955,258.355c-0.698,0.228-1.369,0.43-2,0.618c-0.9-1.195-3.799-5.719-5.8-8.888l4.229-0.873
					C368.384,249.212,369.699,253.749,371.955,258.355z"/>
				
					<linearGradient id="XMLID_00000131362273417434090630000008986381028540435621_" gradientUnits="userSpaceOnUse" x1="363.2072" y1="-16107.4785" x2="288.0811" y2="-16177.6152" gradientTransform="matrix(1 0 0 -1 0 -15881.8896)">
					<stop  offset="0" style="stop-color:#4663C5"/>
					<stop  offset="1" style="stop-color:#398EF6"/>
				</linearGradient>
				<path id="XMLID_98_" style="fill:url(#XMLID_00000131362273417434090630000008986381028540435621_);" d="M363.067,264.047
					c-4.766,20.703-6.847,22.072-7.881,23.831c-1.302,2.202-12.875,3.021-27.858,2.631c-8.901-0.228-27.724-5.84-29.51-9.573
					c-0.725-1.517,0.537-16.876,7.089-37.834c0.645-2.081,1.343-4.216,2.108-6.404c0.282-0.819,0.604-1.692,0.967-2.591
					c4.068-10.311,12.419-24.865,19.185-29.47c2.886-1.974,9.908-2.618,18.595-2.497c7.492,0.107,15.44,2.336,19.172,4.055
					c8.458,4.35,12.848,11.13,16.299,19.239C382.158,227.368,367.444,245.077,363.067,264.047z"/>
				<g id="XMLID_88_">
					
						<linearGradient id="XMLID_00000031895648766057389460000003002225863768469376_" gradientUnits="userSpaceOnUse" x1="325.667" y1="186.0253" x2="363.8071" y2="192.5202" gradientTransform="matrix(-0.9644 -0.2646 -0.2646 0.9644 749.1685 104.7723)">
						<stop  offset="0" style="stop-color:#F5C49F"/>
						<stop  offset="1" style="stop-color:#CA9A8F"/>
					</linearGradient>
					<path id="XMLID_93_" style="fill:url(#XMLID_00000031895648766057389460000003002225863768469376_);" d="M348.078,202.235
						c0,0,10.212,9.535,16.852,3.958l5.43-13.247l-13.699-8.875l-1.229-1.649c0,0-0.266,2.749-0.697,6.763
						c-0.255,2.275-0.419,4.963-0.877,7.756C353.298,200.359,348.078,202.235,348.078,202.235z"/>
					
						<linearGradient id="XMLID_00000124863183535579059080000010487966170402972552_" gradientUnits="userSpaceOnUse" x1="329.7364" y1="175.3242" x2="334.2103" y2="175.3242" gradientTransform="matrix(-0.9644 -0.2646 -0.2646 0.9644 749.1685 104.7723)">
						<stop  offset="0" style="stop-color:#F3F3F3"/>
						<stop  offset="0.2778" style="stop-color:#E8E8E8"/>
						<stop  offset="0.7704" style="stop-color:#C9C9CC"/>
						<stop  offset="1" style="stop-color:#B9B9BD"/>
					</linearGradient>
					<path id="XMLID_91_" style="fill:url(#XMLID_00000124863183535579059080000010487966170402972552_);" d="M385.65,181.885
						c0,0,0.331,6.012-4.958,8.561l0.958-9.344L385.65,181.885z"/>
					
						<linearGradient id="XMLID_00000034073559360485749120000000909577348626344120_" gradientUnits="userSpaceOnUse" x1="381.6301" y1="-16075.3311" x2="352.8453" y2="-16066.3975" gradientTransform="matrix(1 0 0 -1 0 -15881.8896)">
						<stop  offset="0" style="stop-color:#F5C49F"/>
						<stop  offset="1" style="stop-color:#CA9A8F"/>
					</linearGradient>
					<path id="XMLID_90_" style="fill:url(#XMLID_00000034073559360485749120000000909577348626344120_);" d="M356.341,194.977
						c0.424,1.158,0.926,2.294,1.482,3.392c0,0,0,0,0.006,0.02c0.932,1.801,2.074,3.518,3.404,5.074
						c1.716,1.999,3.398,3.367,4.992,4.291c0.837,0.525,1.628,0.892,2.396,1.181c3.566,1.309,6.083,0.489,6.083,0.489
						c4.817-4.141,6.953-12.415,7.885-18.883c0.391-2.614,0.569-4.931,0.67-6.563c0.081-1.477,0.076-2.373,0.076-2.373
						c0.003-0.065,0.011-0.11,0.013-0.175c0.729-8.482-9.982-11.723-18.651-9.213c-0.512,0.15-0.999,0.313-1.493,0.521
						c-2.469,0.913-4.697,2.354-6.329,4.305c-2.787,3.335-2.91,7.965-2.139,12.142c0.044,0.222,0.087,0.445,0.131,0.667
						C355.243,191.729,355.8,193.49,356.341,194.977z"/>
					
						<linearGradient id="XMLID_00000057859663839859323970000002551566078247985304_" gradientUnits="userSpaceOnUse" x1="372.0941" y1="-16071.3252" x2="367.7397" y2="-16037.875" gradientTransform="matrix(1 0 0 -1 0 -15881.8896)">
						<stop  offset="0" style="stop-color:#F3F3F3"/>
						<stop  offset="0.2778" style="stop-color:#E8E8E8"/>
						<stop  offset="0.7704" style="stop-color:#C9C9CC"/>
						<stop  offset="1" style="stop-color:#B9B9BD"/>
					</linearGradient>
					<path id="XMLID_89_" style="fill:url(#XMLID_00000057859663839859323970000002551566078247985304_);" d="M366.908,163.194
						c8.36-2.417,17.426,3.398,22.605,7.227c3.99,2.949,1.06,12.085-5.279,13.412c-6.763,1.415-11.666-0.646-15.053-3.341
						c-0.281,1.395-0.8,2.898-1.766,3.8c-0.831,0.775-2.804,1.391-3.898,1.689c-0.224,1.442-0.464,2.754-0.719,3.736l-1.682,0.395
						c-0.154-0.584-0.297-1.34-0.446-2.325c0,0-0.429-3.788-3.001-4.162c-0.803-0.116-2.252,0.261-2.724,1.646
						c-0.473,1.387,0.031,3.783-0.247,5.689c-0.328,2.243-0.569,4.502-0.836,5.971c0,0-4.563-5.604-3.33-18.253
						c0.812-8.445,4.419-12.379,9.108-12.272C363.917,166.502,363.426,164.201,366.908,163.194z"/>
				</g>
				
					<linearGradient id="XMLID_00000075144271687535768770000015747873177440712093_" gradientUnits="userSpaceOnUse" x1="260.3707" y1="272.3951" x2="311.412" y2="254.1661" gradientTransform="matrix(0.9445 0.3286 -0.3286 0.9445 106.8301 -91.8595)">
					<stop  offset="0" style="stop-color:#F5C49F"/>
					<stop  offset="1" style="stop-color:#CA9A8F"/>
				</linearGradient>
				<path id="XMLID_30_" style="fill:url(#XMLID_00000075144271687535768770000015747873177440712093_);" d="M299.805,210.931
					l9.818,18.209l-13.924,5.195l1.545,35.226l0,0c0,0,1.014,1.74,2.559,3.26c0.871,0.857,2.567,1.916,3.653,3.294
					c0.574,0.729,2.483,4.403,2.421,4.848c-0.062,0.445-0.541,1.274-2.005,0.389c-1.464-0.885-4.085-3.633-4.085-3.633
					s-0.083,2.521-0.126,4.26c-0.005,0.198,1.503,3.19,1.543,5.088c0.037,1.736-0.676,1.658-0.676,1.658s0.468,0.919,0.178,1.419
					c-0.237,0.41-1.299,0.756-2.227-0.553c0,0-0.461,0.043-0.877-0.055c-0.618-0.145-1.078-0.744-1.078-0.744
					s-0.492,0.34-1.219-0.134c-1.965-1.281-3.162-3.383-3.162-3.383c-0.835-1.161-2.265-3.824-2.766-5.362
					c-0.665-2.039-0.061-6.201-0.18-7.927c-2.892-8.739-13.618-29.811-9.942-42.326
					C282.358,219.086,299.805,210.931,299.805,210.931z"/>
				
					<linearGradient id="XMLID_00000062189867885378517430000018217698803388530107_" gradientUnits="userSpaceOnUse" x1="304.9065" y1="-16117.7295" x2="325.5957" y2="-16117.7295" gradientTransform="matrix(1 0 0 -1 0 -15881.8896)">
					<stop  offset="0" style="stop-color:#4663E1"/>
					<stop  offset="1" style="stop-color:#398EF6"/>
				</linearGradient>
				<path id="XMLID_87_" style="opacity:0.5;fill:url(#XMLID_00000062189867885378517430000018217698803388530107_);" d="
					M325.596,229.919c0,0-12.016,9.707-20.689,13.184c0.645-2.081,1.343-4.216,2.108-6.404c0.282-0.819,0.604-1.692,0.967-2.591
					l8.713-5.531L325.596,229.919z"/>
				
					<linearGradient id="XMLID_00000137100913257725126800000017931941500744268678_" gradientUnits="userSpaceOnUse" x1="375.2416" y1="-16043.6113" x2="304.6043" y2="-16109.5576" gradientTransform="matrix(1 0 0 -1 0 -15881.8896)">
					<stop  offset="0" style="stop-color:#4663C5"/>
					<stop  offset="1" style="stop-color:#398EF6"/>
				</linearGradient>
				<path id="XMLID_28_" style="fill:url(#XMLID_00000137100913257725126800000017931941500744268678_);" d="M294.802,212.664
					c0,0-1.039,4.655,2.883,14.248c1.542,3.771,7.238,10.955,7.238,10.955c3.32-0.655,13.51-3.524,25.05-10.405
					c9.411-5.611,9.484-14.689,9.484-14.689s-0.633-9.939-5.729-10.095C322.993,202.351,305.23,207.119,294.802,212.664z"/>
				
					<linearGradient id="XMLID_00000085957568442054624350000016746796324740588942_" gradientUnits="userSpaceOnUse" x1="374.1476" y1="-16111.4014" x2="368.745" y2="-16069.9004" gradientTransform="matrix(1 0 0 -1 0 -15881.8896)">
					<stop  offset="0" style="stop-color:#F3F3F3"/>
					<stop  offset="0.2778" style="stop-color:#E8E8E8"/>
					<stop  offset="0.7704" style="stop-color:#C9C9CC"/>
					<stop  offset="1" style="stop-color:#B9B9BD"/>
				</linearGradient>
				<path id="XMLID_24_" style="fill:url(#XMLID_00000085957568442054624350000016746796324740588942_);" d="M361.116,190.111
					c0,0-1.392,9.068-0.732,12.304c0.66,3.236,5.671,6.348,9.363,7.262c3.692,0.915,6.727,0.369,8.517-3.546
					c1.79-3.916,2.251-6.457,2.251-6.457s-3.207-1.494-7.664-2.102c-3.996-0.546-7.202-3.063-7.93-3.734
					c-0.727-0.671-0.894-6.452-1.049-8.064C363.718,184.162,361.379,188.985,361.116,190.111z"/>
				<g id="XMLID_34_">
					
						<linearGradient id="XMLID_00000047049348158361744710000015296216754853639588_" gradientUnits="userSpaceOnUse" x1="411.5284" y1="387.2687" x2="464.2845" y2="368.4272" gradientTransform="matrix(0.9969 -0.0781 0.0781 0.9969 -28.6237 30.2821)">
						<stop  offset="0" style="stop-color:#3C698A"/>
						<stop  offset="0.1239" style="stop-color:#345E80"/>
						<stop  offset="1" style="stop-color:#01103F"/>
					</linearGradient>
					<path id="XMLID_39_" style="fill:url(#XMLID_00000047049348158361744710000015296216754853639588_);" d="M444.016,455.952
						l-11.849-151.18c-0.37-4.694-4.498-8.197-9.178-7.843c-2.454,0.193-4.669,1.404-6.165,3.391
						c-1.302,1.729-1.824,3.924-1.655,6.082l0.153,1.956c0.097,1.244-0.832,2.331-2.076,2.429l0,0
						c-1.244,0.098-2.332-0.832-2.43-2.076l-0.146-1.859c-0.27-3.447,0.657-6.937,2.833-9.624c2.279-2.813,5.537-4.524,9.13-4.805
						c7.189-0.572,13.473,4.817,14.037,11.994l11.849,151.18L444.016,455.952z"/>
				</g>
				
					<linearGradient id="XMLID_00000042707184567711420580000005123296233678530225_" gradientUnits="userSpaceOnUse" x1="423.6815" y1="-16179.4082" x2="409.8225" y2="-16163.0059" gradientTransform="matrix(1 0 0 -1 0 -15881.8896)">
					<stop  offset="0" style="stop-color:#F5C49F"/>
					<stop  offset="1" style="stop-color:#CA9A8F"/>
				</linearGradient>
				<path id="XMLID_35_" style="fill:url(#XMLID_00000042707184567711420580000005123296233678530225_);" d="M415.433,285.896
					c0,0,0.952,0.919,2.518,1.423c1.566,0.503,2.551,1.134,4.733,1.582c1.293,0.265,1.066-0.087,2.685,1.98
					c1.112,1.42,2.093,1.754,2.014,2.197c-0.153,0.857-1.203,1.295-3.161,0.512c-1.958-0.783-1.628-1.012-2.355-1.124
					c0,0-4.757,0.727-6.434,0.839c-1.677,0.112-5.201-2.699-5.201-2.699L415.433,285.896z"/>
				<g id="XMLID_78_">
					
						<linearGradient id="XMLID_00000183940310250249728150000013316337348335365540_" gradientUnits="userSpaceOnUse" x1="414.9814" y1="-16181.0518" x2="418.3983" y2="-16182.583" gradientTransform="matrix(1 0 0 -1 0 -15881.8896)">
						<stop  offset="0" style="stop-color:#F5C49F"/>
						<stop  offset="1" style="stop-color:#CA9A8F"/>
					</linearGradient>
					<path id="XMLID_73_" style="fill:url(#XMLID_00000183940310250249728150000013316337348335365540_);" d="M418.529,300.1
						c0,0-0.402-0.029-0.754-0.082c-0.244-0.329-0.468-0.62-0.761-0.987c0,0-0.975-0.993-1.632-0.621
						c-0.394,0.222-0.049,1.165,0.615,2.181c0.609,0.932,1.662,0.739,1.879,0.646C418.529,300.956,418.529,300.1,418.529,300.1z"/>
					
						<linearGradient id="XMLID_00000142890199825255637190000008817345274078232503_" gradientUnits="userSpaceOnUse" x1="415.9099" y1="-16179.5605" x2="420.3403" y2="-16181.5459" gradientTransform="matrix(1 0 0 -1 0 -15881.8896)">
						<stop  offset="0" style="stop-color:#F5C49F"/>
						<stop  offset="1" style="stop-color:#CA9A8F"/>
					</linearGradient>
					<path id="XMLID_64_" style="fill:url(#XMLID_00000142890199825255637190000008817345274078232503_);" d="M420.51,298.887
						c0,0-0.521-0.037-0.978-0.106c-0.316-0.426-0.607-0.803-0.987-1.279c0,0-1.263-1.287-2.116-0.806
						c-0.511,0.288-0.063,1.51,0.798,2.827c0.79,1.208,2.154,0.958,2.436,0.837C420.51,299.997,420.51,298.887,420.51,298.887z"/>
					
						<linearGradient id="XMLID_00000170279901444660309560000011800524615349882546_" gradientUnits="userSpaceOnUse" x1="417.8818" y1="-16178.418" x2="422.3122" y2="-16180.4033" gradientTransform="matrix(1 0 0 -1 0 -15881.8896)">
						<stop  offset="0" style="stop-color:#F5C49F"/>
						<stop  offset="1" style="stop-color:#CA9A8F"/>
					</linearGradient>
					<path id="XMLID_60_" style="fill:url(#XMLID_00000170279901444660309560000011800524615349882546_);" d="M422.482,297.745
						c0,0-0.521-0.037-0.978-0.106c-0.316-0.427-0.607-0.803-0.987-1.279c0,0-1.264-1.287-2.117-0.806
						c-0.51,0.288-0.063,1.51,0.798,2.827c0.79,1.208,2.155,0.958,2.436,0.837C422.482,298.855,422.482,297.745,422.482,297.745z"/>
					
						<linearGradient id="XMLID_00000180334929491138665720000002910334279725026469_" gradientUnits="userSpaceOnUse" x1="419.9047" y1="-16177.6211" x2="424.3352" y2="-16179.6064" gradientTransform="matrix(1 0 0 -1 0 -15881.8896)">
						<stop  offset="0" style="stop-color:#F5C49F"/>
						<stop  offset="1" style="stop-color:#CA9A8F"/>
					</linearGradient>
					<path id="XMLID_37_" style="fill:url(#XMLID_00000180334929491138665720000002910334279725026469_);" d="M424.505,296.948
						c0,0-0.521-0.037-0.978-0.106c-0.316-0.427-0.607-0.803-0.987-1.279c0,0-1.263-1.287-2.116-0.806
						c-0.51,0.288-0.063,1.51,0.798,2.827c0.79,1.208,2.154,0.958,2.436,0.837C424.505,298.058,424.505,296.948,424.505,296.948z"/>
				</g>
				<g id="XMLID_82_">
					<path id="XMLID_22_" style="fill:none;stroke:#BFBFBF;stroke-width:1.0567;stroke-linecap:round;stroke-miterlimit:10;" d="
						M383.789,342.13c2.072,1.382,3.878,2.992,3.941,3.777c0.154,1.915-1.991,2.914-1.997,3.914
						c-0.009,1.695,2.732,2.048,3.264,3.658c0.601,1.821-2.051,3.417-1.704,5.303c0.288,1.566,2.486,2.269,2.653,3.853
						c0.178,1.683-2.03,3.953-3.071,5.406"/>
					<path id="XMLID_23_" style="fill:none;stroke:#BFBFBF;stroke-width:1.0567;stroke-linecap:round;stroke-miterlimit:10;" d="
						M420.59,283.536c0.649-0.146,1.312-0.229,1.977-0.246c0.669-0.017,1.396,0.055,1.889,0.507c0.617,0.565,0.668,1.535,1.19,2.189
						c0.535,0.671,1.453,0.883,2.305,0.987c0.852,0.103,1.754,0.155,2.469,0.63c0.638,0.424,1.047,1.172,1.059,1.938
						c0.01,0.661-0.251,1.351-0.004,1.964c0.169,0.42,0.548,0.715,0.932,0.956c0.503,0.315,1.042,0.572,1.604,0.763
						c0.732,0.25,1.536,0.408,2.099,0.937c0.479,0.45,0.71,1.114,0.763,1.769c0.053,0.655-0.055,1.311-0.162,1.959"/>
					<path id="XMLID_32_" style="fill:none;stroke:#BFBFBF;stroke-width:1.0567;stroke-linecap:round;stroke-miterlimit:10;" d="
						M325.578,200.199c0.342-0.413,0.69-0.83,1.123-1.146c0.433-0.316,0.969-0.525,1.502-0.464c0.593,0.068,1.093,0.45,1.604,0.758
						c0.511,0.308,1.138,0.557,1.692,0.336c0.839-0.334,1.051-1.545,1.889-1.879c0.684-0.273,1.428,0.167,2.029,0.594
						c0.6,0.427,1.328,0.882,2.023,0.639c0.918-0.321,1.216-1.691,2.176-1.848c0.526-0.085,1.023,0.248,1.425,0.598
						c0.479,0.417,0.917,0.881,1.305,1.384"/>
					<path id="XMLID_36_" style="fill:none;stroke:#BFBFBF;stroke-width:1.0567;stroke-linecap:round;stroke-miterlimit:10;" d="
						M305.229,380.979c-0.635,0.422-1.283,0.856-1.75,1.459c-0.467,0.603-0.731,1.418-0.493,2.143
						c0.379,1.155,1.875,1.766,2.006,2.975c0.126,1.161-1.075,1.99-2.145,2.458c-1.07,0.467-2.332,1.039-2.541,2.188
						c-0.241,1.325,1.065,2.34,1.986,3.323c0.296,0.316,0.578,0.698,0.565,1.131c-0.007,0.239-0.106,0.467-0.238,0.666
						c-0.889,1.344-3.146,1.462-3.679,2.983c-0.256,0.73,0.014,1.562,0.498,2.166c0.483,0.604,1.152,1.026,1.808,1.436"/>
					<path id="XMLID_44_" style="fill:none;stroke:#BFBFBF;stroke-width:1.0567;stroke-linecap:round;stroke-miterlimit:10;" d="
						M371.625,260.898c-0.605,1.16-1.184,2.663-0.355,3.674c0.943,1.152,3.106,0.792,3.823,2.097
						c0.688,1.251-0.621,2.885-0.037,4.188c0.486,1.084,1.93,1.254,3.118,1.238c1.188-0.016,2.615,0.068,3.202,1.1
						c0.524,0.922,0.07,2.151,0.539,3.102c0.359,0.728,1.199,1.12,2.009,1.169c0.811,0.049,1.608-0.185,2.387-0.418"/>
					<path id="XMLID_46_" style="fill:none;stroke:#BFBFBF;stroke-width:1.0567;stroke-linecap:round;stroke-miterlimit:10;" d="
						M389.979,350.36c1.171,1.14,2.444,2.599,2.074,4.191c-0.312,1.34-1.75,2.361-1.603,3.729c0.199,1.849,3.09,2.491,3.228,4.345
						c0.032,0.432-0.103,0.858-0.269,1.258c-0.389,0.932-0.962,1.788-1.676,2.503"/>
					<path id="XMLID_75_" style="fill:none;stroke:#BFBFBF;stroke-width:1.0567;stroke-linecap:round;stroke-miterlimit:10;" d="
						M360.533,423.828c-1.338,1.198-1.647,3.102-1.28,3.667c0.341,0.524,0.948,0.643,1.489,0.779
						c0.541,0.136,1.152,0.415,1.323,1.044c0.187,0.688-0.259,1.354-0.658,1.883c-0.399,0.529-0.805,1.256-0.542,1.909
						c0.421,1.046,1.949,0.565,2.519,1.508c0.435,0.72-0.002,1.687-0.427,2.394c-0.425,0.707-1.01,1.679-0.388,2.394
						c0.332,0.382,1.407,0.882,3.12,1.148"/>
				</g>
			</g>
			<g id="XMLID_92_">
				
					<linearGradient id="XMLID_00000183928000481168717590000002171855687637023377_" gradientUnits="userSpaceOnUse" x1="376.8227" y1="291.5959" x2="299.6884" y2="248.5404" gradientTransform="matrix(0.1587 -0.9873 0.9873 0.1587 36.3941 547.6078)">
					<stop  offset="0" style="stop-color:#F5C49F"/>
					<stop  offset="1" style="stop-color:#DDA48F"/>
				</linearGradient>
				<path id="XMLID_21_" style="fill:url(#XMLID_00000183928000481168717590000002171855687637023377_);" d="M379.35,219.851
					c-1.091,1.195-2.98,2.795-3.778,4.169c-0.744,1.279-0.259,2.339,0.36,2.438c-1.675,1.967-0.895,3.748-0.127,3.832
					c0.472-0.063,1.134-0.705,1.409-1.005c-1.159,1.724,0.143,3.45,0.928,3.136c0.367-0.147,1.777-1.192,2.136-1.543
					c-0.029,0.054-0.827,1.092-0.906,1.777c-0.167,1.446,0.736,1.47,1.71,0.921c1.873-1.055,3.033-3.263,3.033-3.263
					c1.068-2.604-0.878-7.029-1.309-7.827C381.451,219.82,379.862,219.291,379.35,219.851z"/>
				
					<linearGradient id="XMLID_00000098934206166420880520000007474005430819047832_" gradientUnits="userSpaceOnUse" x1="196.4111" y1="-16090.3945" x2="283.1353" y2="-16090.3945" gradientTransform="matrix(1 0 0 -1 0 -15881.8896)">
					<stop  offset="0" style="stop-color:#3949B2"/>
					<stop  offset="1" style="stop-color:#0B1B6A"/>
				</linearGradient>
				<path id="XMLID_31_" style="opacity:0.4;fill:url(#XMLID_00000098934206166420880520000007474005430819047832_);" d="
					M251.363,221.423l-10.417-13.48l-3.638,0.131c-3.403-12.635-7.715-27.398-9.961-30.144c0,0-2.283,13.856,2.933,30.12
					l1.204,0.036c0,0,4.971,15.788,8.406,21.828c3.434,6.04,25.485,9.167,25.485,9.167L251.363,221.423z"/>
				
					<linearGradient id="XMLID_00000161589766256622751410000006386955800045444524_" gradientUnits="userSpaceOnUse" x1="264.2918" y1="240.3548" x2="274.6841" y2="224.5022" gradientTransform="matrix(0.9955 0.0943 -0.0943 0.9955 22.1162 -24.5225)">
					<stop  offset="0" style="stop-color:#F5C49F"/>
					<stop  offset="1" style="stop-color:#EAC8B0"/>
				</linearGradient>
				<path id="XMLID_33_" style="fill:url(#XMLID_00000161589766256622751410000006386955800045444524_);" d="M258.091,219.504
					l-14.932,9.689c4.851,5.694,29.561,12.003,42.8,15.89l5.817-7.216C281.829,232.492,263.704,221.787,258.091,219.504z"/>
				
					<linearGradient id="XMLID_00000010306016308589067960000007143364683575833995_" gradientUnits="userSpaceOnUse" x1="295.2735" y1="276.2511" x2="305.6641" y2="260.4011" gradientTransform="matrix(0.829 -0.5593 0.5593 0.829 -105.6282 204.008)">
					<stop  offset="0" style="stop-color:#F5C49F"/>
					<stop  offset="1" style="stop-color:#EAC8B0"/>
				</linearGradient>
				<path id="XMLID_69_" style="fill:url(#XMLID_00000010306016308589067960000007143364683575833995_);" d="M296.904,247.722
					c0.987-0.252,1.913-1.347,1.68-2.488c0.713-0.199,2.18-1.245,1.374-2.733c1.102-1.336,0.75-2.277-0.096-3.04
					c-0.228-0.205-0.612-0.5-1.067-0.823c0.503-0.337,0.963-0.684,1.199-0.958c0.687-0.802,0.906-2.655,0.236-3.038
					c-0.669-0.384-2.409,0.948-3.428,1.051c-1.019,0.103-3.149,0.941-3.149,0.941l0.001,0.001c-1.689,0.413-4.426,1.579-5.872,2.211
					l-1.822,6.239c1.762,1.282,5.622,3.314,8.099,3.72C295.574,249.051,296.339,248.707,296.904,247.722z"/>
				
					<linearGradient id="XMLID_00000013191523787460704300000005986702157402566329_" gradientUnits="userSpaceOnUse" x1="239.0128" y1="223.7836" x2="249.404" y2="207.9327" gradientTransform="matrix(0.9955 0.0943 -0.0943 0.9955 22.1162 -24.5225)">
					<stop  offset="0" style="stop-color:#F5C49F"/>
					<stop  offset="1" style="stop-color:#EAC8B0"/>
				</linearGradient>
				<path id="XMLID_43_" style="fill:url(#XMLID_00000013191523787460704300000005986702157402566329_);" d="M252.905,191.239
					l-20.292,6.755c0,0,3.991,17.042,10.546,31.199l17.104-4.321C256.852,212.966,252.905,191.239,252.905,191.239z"/>
				
					<linearGradient id="XMLID_00000045600714016172369670000010385363064738715792_" gradientUnits="userSpaceOnUse" x1="286.6296" y1="187.5669" x2="226.8481" y2="187.5669" gradientTransform="matrix(0.9955 0.0943 -0.0943 0.9955 22.1162 -24.5225)">
					<stop  offset="0" style="stop-color:#3EC1FF"/>
					<stop  offset="1" style="stop-color:#28BAFF"/>
				</linearGradient>
				<path id="XMLID_42_" style="fill:url(#XMLID_00000045600714016172369670000010385363064738715792_);" d="M256.529,198.596
					c-6.623,3.53-14.686,5.258-24.916,5.467c-9.248-26.826-2.184-37.57,3.94-39.519c2.553-0.812,5.944-0.446,7.849,0.584
					c2.918,1.588,5.003,3.996,6.247,7.087C253.85,182.655,256.177,197.192,256.529,198.596z"/>
			</g>
		</g>
		<g id="XMLID_146_">
			
				<linearGradient id="XMLID_00000155856219385905858360000001580660188694260399_" gradientUnits="userSpaceOnUse" x1="392.9662" y1="-16016.79" x2="475.4061" y2="-16016.79" gradientTransform="matrix(1 0 0 -1 0 -15881.8896)">
				<stop  offset="0" style="stop-color:#3EC1FF"/>
				<stop  offset="1" style="stop-color:#28BAFF"/>
			</linearGradient>
			<path id="XMLID_53_" style="opacity:0.39;fill:url(#XMLID_00000155856219385905858360000001580660188694260399_);" d="
				M434.186,93.681c-22.765,0-41.22,18.455-41.22,41.22c0,11.196,4.47,21.343,11.715,28.771l-4.873,10.837l9.643-6.634
				c6.89,5.177,15.453,8.246,24.735,8.246c22.765,0,41.22-18.455,41.22-41.22C475.406,112.135,456.951,93.681,434.186,93.681z"/>
			<path id="XMLID_50_" style="fill:#FDFEFF;" d="M460.502,134.525c0-2.826-1.433-5.321-3.607-6.794
				c0.491-0.561,0.802-1.293,0.802-2.094c0-1.603-1.192-2.916-2.736-3.127c0.09-0.301,0.16-0.611,0.16-0.942
				c0-1.754-1.423-3.166-3.176-3.166c-0.04,0-0.08,0.01-0.12,0.01c-0.832-1.814-2.655-3.076-4.79-3.076
				c-0.712,0-1.403,0.14-2.024,0.411c-0.281-1.543-1.623-2.705-3.237-2.705c-0.982,0-1.854,0.431-2.455,1.112
				c-0.661-1.373-2.044-2.335-3.677-2.335c-1.493,0-2.786,0.812-3.497,2.004c-0.681-0.742-1.643-1.213-2.736-1.213
				c-1.864,0-3.387,1.373-3.667,3.156c-0.731-0.271-1.523-0.431-2.355-0.431c-2.716,0-5.05,1.613-6.113,3.938
				c-0.551-0.23-1.192-0.291-1.864-0.09c-0.832,0.251-1.513,0.912-1.774,1.744c-0.16,0.491-0.17,0.972-0.08,1.413
				c-2.395,1.032-4.068,3.407-4.068,6.183c0,3.708,2.996,6.714,6.704,6.734c-0.16,0.331-0.24,0.681-0.24,1.022
				c0,1.022,0.691,1.994,1.764,2.285c1.152,0.321,2.275,0.481,3.257,0.551c1.423,0.1,2.485,1.233,2.695,2.645
				c0.07,0.491,0.271,1.012,0.651,1.523c1.563,2.044,6.453,1.292,8.608,3.437c2.144,2.154,2.435,2.956,2.716,4.95
				c0.21,1.433-1.012,4.249-1.703,6.183c-0.301,0.832,0.331,1.704,1.212,1.704c0.611,0,1.132-0.431,1.253-1.032
				c0.23-1.122,0.782-2.946,2.054-4.359c0.411-0.461,1.102-0.361,2.295-0.832c0.972-0.381,2.034-0.361,3.056-0.17
				c0.672,0.13,1.383,0.12,2.114-0.03c1.693-0.361,3.036-1.533,3.708-3.126c0.451-1.072,0.501-2.094,0.321-3.036
				c0.681,0.281,1.443,0.431,2.235,0.391c1.563-0.07,2.986-0.952,3.928-2.205c1.102-1.473,1.233-2.806,1.012-4.008
				C459.169,139.656,460.502,137.25,460.502,134.525z M423.637,126.609c-0.201-0.05-0.401-0.14-0.631-0.18
				c-0.22-0.03-0.451-0.07-0.691-0.11c-0.241,0-0.491-0.03-0.732-0.01c-0.25,0.03-0.501,0.04-0.731,0.12
				c-0.25,0.03-0.481,0.13-0.721,0.221c-0.22,0.1-0.451,0.2-0.661,0.331c-0.431,0.24-0.812,0.531-1.142,0.782
				c-0.651,0.521-1.082,0.942-1.082,0.942s0.11-0.601,0.611-1.363c0.26-0.371,0.601-0.792,1.062-1.162
				c0.241-0.17,0.491-0.351,0.772-0.491c0.241-0.1,0.491-0.21,0.751-0.281c-0.04-0.16-0.07-0.351-0.17-0.571
				c-0.09-0.301-0.251-0.631-0.451-0.972c-0.22-0.321-0.481-0.651-0.832-0.902c-0.671-0.531-1.563-0.772-2.235-0.822
				c-0.671-0.06-1.132,0.02-1.132,0.02s0.441-0.15,1.142-0.19c0.681-0.05,1.663,0.04,2.525,0.531
				c0.441,0.23,0.812,0.571,1.132,0.912c0.29,0.361,0.541,0.722,0.702,1.052c0.19,0.311,0.27,0.591,0.351,0.792h0.09
				c0.311-0.03,0.621,0.08,0.912,0.11c0.291,0.07,0.551,0.2,0.802,0.29c0.25,0.1,0.451,0.261,0.641,0.381
				c0.391,0.23,0.631,0.541,0.822,0.721c0.17,0.19,0.271,0.311,0.271,0.311s-0.15-0.05-0.401-0.13
				C424.368,126.869,424.047,126.699,423.637,126.609z M431.472,130.376c-0.01,0.17-0.01,0.351-0.05,0.541
				c-0.03,0.19-0.04,0.401-0.11,0.601c-0.06,0.2-0.09,0.431-0.18,0.631c-0.08,0.21-0.16,0.431-0.271,0.631
				c-0.401,0.832-1.012,1.563-1.543,2.034c-0.11,0.1-0.221,0.19-0.321,0.271c0.16,0.22,0.321,0.451,0.441,0.681
				c0.15,0.3,0.261,0.611,0.351,0.922c0.16,0.611,0.18,1.223,0.1,1.714c-0.08,0.491-0.25,0.872-0.371,1.122
				c-0.14,0.251-0.23,0.381-0.23,0.381s0.01-0.161,0.03-0.431c0.01-0.281,0.02-0.651-0.03-1.092c-0.06-0.431-0.18-0.912-0.391-1.393
				c-0.1-0.241-0.22-0.481-0.371-0.712c-0.15-0.251-0.281-0.431-0.481-0.661c-0.19-0.18-0.381-0.401-0.591-0.571
				c-0.21-0.18-0.421-0.341-0.641-0.491c-0.441-0.281-0.882-0.501-1.303-0.651c-0.822-0.29-1.473-0.351-1.473-0.351
				s0.591-0.341,1.593-0.291c0.501,0.02,1.092,0.15,1.663,0.431c0.351,0.17,0.681,0.401,0.992,0.671
				c0.13-0.07,0.281-0.16,0.461-0.281c0.521-0.331,1.162-0.882,1.643-1.583c0.13-0.16,0.23-0.351,0.331-0.531
				c0.11-0.18,0.181-0.371,0.271-0.551c0.08-0.19,0.12-0.381,0.19-0.551c0.06-0.18,0.09-0.351,0.12-0.511
				c0.08-0.321,0.09-0.591,0.11-0.782c0.02-0.19,0.03-0.301,0.03-0.301s0.01,0.11,0.02,0.301
				C431.472,129.765,431.503,130.046,431.472,130.376z M431.312,121.388c-0.07,0.01-0.12,0-0.19,0c0.03,0.15,0.05,0.301,0.08,0.441
				c0.03,0.351,0,0.701,0,1.032c-0.05,0.331-0.12,0.651-0.18,0.942c-0.07,0.29-0.19,0.551-0.281,0.791
				c-0.16,0.491-0.441,0.842-0.591,1.092c-0.17,0.251-0.271,0.381-0.271,0.381s0.02-0.171,0.07-0.461
				c0.03-0.301,0.16-0.691,0.18-1.173c0.02-0.24,0.07-0.501,0.09-0.761c0-0.271,0-0.551,0.02-0.842
				c-0.03-0.281-0.06-0.571-0.09-0.872c-0.08-0.281-0.1-0.591-0.211-0.862c-0.09-0.29-0.18-0.571-0.331-0.832
				c-0.11-0.271-0.271-0.511-0.411-0.761c-0.18-0.231-0.321-0.481-0.501-0.681c-0.16-0.2-0.331-0.401-0.501-0.571
				c-0.651-0.701-1.193-1.132-1.193-1.132s0.701,0.09,1.593,0.641c0.451,0.261,0.922,0.661,1.363,1.163
				c0.2,0.27,0.441,0.531,0.591,0.852c0.11,0.19,0.19,0.381,0.271,0.581c0.14,0.04,0.311,0.08,0.531,0.11
				c0.511,0.09,1.212,0.09,1.884-0.12c0.631-0.19,1.202-0.551,1.583-0.942c-0.14-0.11-0.271-0.211-0.391-0.311
				c-0.251-0.21-0.451-0.451-0.631-0.691c-0.361-0.491-0.581-1.032-0.661-1.513c-0.09-0.471-0.05-0.872,0-1.132
				c0.06-0.261,0.12-0.401,0.12-0.401s0.03,0.14,0.1,0.391c0.07,0.251,0.19,0.591,0.371,0.952c0.19,0.361,0.471,0.732,0.812,1.082
				c0.17,0.18,0.371,0.331,0.561,0.501c0.1,0.08,0.211,0.15,0.301,0.211c0.14,0.09,0.24,0.15,0.361,0.2
				c0.22,0.15,0.461,0.261,0.701,0.361c0.24,0.1,0.481,0.2,0.721,0.271c0.24,0.06,0.471,0.12,0.701,0.16
				c0.231,0.03,0.451,0.07,0.661,0.09c0.832,0.06,1.443-0.04,1.443-0.04s-0.461,0.441-1.393,0.661
				c-0.451,0.11-1.022,0.15-1.613,0.07c-0.29-0.06-0.601-0.11-0.902-0.22c-0.291-0.11-0.591-0.241-0.862-0.391
				c-0.08-0.04-0.16-0.09-0.23-0.14c-0.321,0.451-0.852,0.992-1.543,1.333C432.735,121.228,431.923,121.378,431.312,121.388z
				 M447.996,142.361c-0.261,0.03-0.631,0.01-1.072,0.09c-0.21,0.03-0.441,0.05-0.681,0.09c-0.241,0.06-0.481,0.11-0.742,0.16
				c-0.24,0.08-0.481,0.17-0.741,0.26c-0.23,0.12-0.491,0.201-0.701,0.361c-0.471,0.25-0.862,0.621-1.243,0.972
				c-0.16,0.2-0.351,0.371-0.491,0.571c-0.15,0.19-0.291,0.371-0.411,0.551c-0.491,0.711-0.772,1.273-0.772,1.273
				s-0.08-0.631,0.211-1.543c0.12-0.461,0.381-0.962,0.721-1.463c0.2-0.23,0.371-0.501,0.631-0.711c0.11-0.1,0.24-0.17,0.361-0.261
				c-0.07-0.08-0.13-0.17-0.2-0.27c-0.331-0.491-0.721-1.212-0.832-1.994c-0.07-0.391-0.06-0.782-0.01-1.142
				c0.01-0.18,0.07-0.341,0.11-0.501c0.04-0.16,0.1-0.301,0.16-0.431c0.18-0.421,0.381-0.681,0.441-0.772
				c-0.03,0.09-0.18,0.391-0.281,0.832c-0.03,0.13-0.07,0.271-0.07,0.421c-0.01,0.15-0.04,0.311-0.01,0.471
				c0.01,0.331,0.07,0.671,0.19,0.992c0.22,0.641,0.661,1.182,1.012,1.533c0.14,0.14,0.251,0.23,0.351,0.311
				c0.16-0.06,0.321-0.12,0.471-0.19c0.301-0.11,0.621-0.15,0.922-0.221c0.301-0.02,0.591-0.02,0.872-0.03
				c0.27,0.01,0.531,0.07,0.762,0.1c0.471,0.05,0.832,0.24,1.082,0.321c0.251,0.1,0.391,0.17,0.391,0.17
				S448.267,142.331,447.996,142.361z M448.718,131.639c-0.201,0-0.481,0.03-0.822-0.03c-0.671-0.06-1.593-0.361-2.305-1.022
				c-0.721-0.651-1.142-1.553-1.353-2.245c-0.08-0.24-0.12-0.451-0.16-0.631c-0.311,0.06-0.621,0.11-0.942,0.12
				c-0.351,0.01-0.691-0.01-1.062-0.07c-0.06,0.14-0.13,0.311-0.211,0.501c-0.07,0.2-0.22,0.411-0.351,0.641
				c-0.15,0.221-0.271,0.491-0.491,0.712c-0.211,0.231-0.381,0.511-0.661,0.711c-0.17,0.14-0.351,0.281-0.531,0.421
				c0.11,0.11,0.23,0.24,0.361,0.411c0.391,0.491,0.782,1.263,0.882,2.074c0.05,0.411,0.03,0.812-0.03,1.182
				c-0.08,0.361-0.171,0.691-0.291,0.962c-0.09,0.271-0.23,0.471-0.301,0.621c-0.06,0.11-0.1,0.18-0.12,0.211
				c0.01-0.03,0.04-0.11,0.08-0.231c0.04-0.16,0.14-0.381,0.18-0.651c0.07-0.281,0.1-0.601,0.11-0.942
				c-0.02-0.341-0.05-0.701-0.171-1.032c-0.2-0.681-0.641-1.232-1.022-1.573c-0.19-0.17-0.371-0.291-0.491-0.371
				c-0.12-0.08-0.17-0.09-0.18-0.1l0.02-0.03c-0.09,0.04-0.18,0.08-0.27,0.11c-0.321,0.15-0.671,0.19-1.002,0.281
				c-0.341,0.04-0.661,0.11-0.992,0.1c-0.641,0.04-1.233-0.04-1.734-0.11c-0.872-0.15-1.463-0.371-1.593-0.421
				c0.14,0.04,0.742,0.191,1.613,0.251c0.501,0.02,1.082,0.04,1.683-0.06c0.311-0.03,0.611-0.13,0.922-0.191
				c0.291-0.12,0.611-0.18,0.892-0.351c0.281-0.14,0.551-0.291,0.792-0.491c0.271-0.17,0.461-0.401,0.671-0.611
				c0.221-0.18,0.341-0.451,0.501-0.661c0.17-0.21,0.251-0.451,0.361-0.661c0.09-0.21,0.2-0.391,0.251-0.591
				c0.04-0.16,0.09-0.301,0.12-0.421c-0.09-0.04-0.19-0.07-0.28-0.13c-0.361-0.18-0.692-0.431-0.952-0.711
				c-0.541-0.551-0.852-1.213-0.992-1.774c-0.16-0.571-0.16-1.052-0.15-1.383c0.02-0.331,0.07-0.511,0.07-0.511
				s0.18,0.741,0.671,1.653c0.26,0.451,0.611,0.922,1.072,1.293c0.221,0.2,0.491,0.351,0.762,0.491c0.14,0.08,0.29,0.12,0.441,0.17
				c0.07,0.03,0.16,0.07,0.21,0.07c0.09,0.02,0.18,0.06,0.25,0.06c0.281,0.06,0.631,0.1,0.952,0.1c0.331,0.01,0.661,0.01,0.972-0.04
				c0.631-0.06,1.202-0.21,1.673-0.411c0.471-0.21,0.822-0.461,1.072-0.661c0.24-0.21,0.371-0.341,0.371-0.341
				s-0.06,0.18-0.21,0.481c-0.09,0.13-0.18,0.321-0.341,0.491c-0.15,0.19-0.341,0.371-0.581,0.551
				c-0.23,0.18-0.501,0.361-0.812,0.491c-0.06,0.03-0.13,0.05-0.19,0.08c0,0.17,0.01,0.411,0.06,0.721
				c0.09,0.601,0.321,1.423,0.852,2.064c0.511,0.661,1.303,1.072,1.944,1.232c0.311,0.11,0.591,0.12,0.782,0.15
				c0.19,0.03,0.301,0.05,0.301,0.05S448.908,131.639,448.718,131.639z M449.81,121.238c-0.05-0.1-0.1-0.18-0.15-0.271
				c-0.07-0.11-0.13-0.19-0.19-0.281c-0.12-0.18-0.261-0.351-0.411-0.521c-0.15-0.15-0.291-0.311-0.441-0.451
				c-0.16-0.13-0.321-0.261-0.471-0.371c-0.16-0.11-0.321-0.211-0.471-0.301c-0.601-0.341-1.092-0.491-1.092-0.491
				s0.501-0.17,1.273,0c0.391,0.08,0.822,0.251,1.243,0.531c0.2,0.14,0.411,0.291,0.601,0.481c0.18,0.19,0.361,0.391,0.511,0.601
				c0.08,0.11,0.16,0.241,0.21,0.331c0.07,0.13,0.13,0.25,0.18,0.371c0.11,0.241,0.18,0.501,0.23,0.742
				c0.1,0.501,0.07,0.992-0.04,1.373c-0.1,0.391-0.271,0.671-0.411,0.852c-0.13,0.18-0.23,0.26-0.23,0.26s0.03-0.12,0.07-0.331
				c0.04-0.21,0.06-0.511,0.05-0.842c-0.01-0.341-0.08-0.722-0.21-1.102C449.99,121.618,449.9,121.428,449.81,121.238z
				 M453.658,128.503c-0.23,0.15-0.541,0.361-0.872,0.651c-0.321,0.301-0.641,0.672-0.922,1.122
				c-0.13,0.221-0.261,0.461-0.361,0.712c-0.12,0.271-0.19,0.481-0.26,0.772c-0.04,0.261-0.12,0.551-0.13,0.822
				c-0.03,0.271-0.04,0.541-0.03,0.802c0.01,0.521,0.1,1.012,0.21,1.433c0.231,0.842,0.561,1.413,0.561,1.413
				s-0.611-0.29-1.152-1.142c-0.271-0.421-0.511-0.972-0.601-1.603c-0.12-0.641-0.07-1.313,0.09-1.984
				c0.08-0.311,0.22-0.681,0.371-0.962c0.16-0.301,0.351-0.571,0.551-0.812c0.411-0.491,0.892-0.852,1.343-1.072
				c0.451-0.22,0.852-0.301,1.132-0.34c0.281-0.03,0.441-0.03,0.441-0.03S453.898,128.362,453.658,128.503z"/>
			<g id="XMLID_135_">
				
					<linearGradient id="XMLID_00000101803429939895745540000014888986357724468650_" gradientUnits="userSpaceOnUse" x1="396.8699" y1="-15997.0166" x2="409.5008" y2="-15984.3848" gradientTransform="matrix(1 0 0 -1 0 -15881.8896)">
					<stop  offset="0" style="stop-color:#FF8681"/>
					<stop  offset="1" style="stop-color:#DB5A5C"/>
				</linearGradient>
				
					<circle id="XMLID_20_" style="fill:url(#XMLID_00000101803429939895745540000014888986357724468650_);" cx="402.737" cy="109.259" r="9.154"/>
				<polygon id="XMLID_133_" style="fill:#FDFEFF;" points="403.903,110.625 401.572,110.625 400.996,103.415 404.478,103.415 				
					"/>
				<path id="XMLID_134_" style="fill:#FDFEFF;" d="M404.393,113.166c0,0.914-0.741,1.656-1.656,1.656
					c-0.914,0-1.656-0.741-1.656-1.656c0-0.915,0.741-1.656,1.656-1.656C403.652,111.51,404.393,112.251,404.393,113.166z"/>
			</g>
		</g>
		
			<linearGradient id="XMLID_00000181083702443808651970000015664109497776382367_" gradientUnits="userSpaceOnUse" x1="80.4336" y1="-16338.373" x2="519.9239" y2="-16338.373" gradientTransform="matrix(1 0 0 -1 0 -15881.8896)">
			<stop  offset="0" style="stop-color:#3C698A"/>
			<stop  offset="0.1239" style="stop-color:#345E80"/>
			<stop  offset="1" style="stop-color:#01103F"/>
		</linearGradient>
		<path id="XMLID_17_" style="fill:url(#XMLID_00000181083702443808651970000015664109497776382367_);" d="M518.573,457.835H81.785
			c-0.746,0-1.351-0.605-1.351-1.351l0,0c0-0.746,0.605-1.351,1.351-1.351h436.788c0.746,0,1.351,0.605,1.351,1.351l0,0
			C519.924,457.23,519.319,457.835,518.573,457.835z"/>
	</g>
</g>
</svg>
